<?xml version="1.0" encoding="utf-8"?>
<!-- Generator: Adobe Illustrator 18.0.0, SVG Export Plug-In . SVG Version: 6.00 Build 0)  -->
<!DOCTYPE svg PUBLIC "-//W3C//DTD SVG 1.1//EN" "http://www.w3.org/Graphics/SVG/1.1/DTD/svg11.dtd">
<svg version="1.1" xmlns="http://www.w3.org/2000/svg" xmlns:xlink="http://www.w3.org/1999/xlink" x="0px" y="0px"
	 viewBox="0 0 316.1 131.3" enable-background="new 0 0 316.1 131.3" xml:space="preserve">
<g id="Layer_1">
	<g>
		<defs>
			<path id="SVGID_59_" d="M6.7,75.6c-0.8,0-1.5-0.4-1.9-1.1l-4.6-7.9c-0.4-0.7-0.4-1.5,0-2.1l4.6-7.9c0.4-0.7,1.1-1.1,1.9-1.1h9.1
				c0.8,0,1.5,0.4,1.9,1.1l4.6,7.9c0.4,0.7,0.4,1.5,0,2.1l-4.6,7.9c-0.4,0.7-1.1,1.1-1.9,1.1H6.7z"/>
		</defs>
		<clipPath id="SVGID_2_">
			<use xlink:href="#SVGID_59_"  overflow="visible"/>
		</clipPath>
		<g clip-path="url(#SVGID_2_)">
			<polygon fill="#EA178E" points="17,55.6 11.2,65.6 17,75.6 22.8,65.6 			"/>
			<polygon fill="#F0D175" points="5.5,55.6 -0.3,65.6 11.2,65.6 17,55.6 			"/>
			<polygon fill="#28ADE3" points="-0.3,65.6 11.2,65.6 17,75.6 5.5,75.6 			"/>
		</g>
	</g>
	<path fill="#262626" d="M168.7,61.5c-3.1,5.7-8.8,8.2-13.5,8.2c-8.2,0-15.3-6.5-15.3-15.1c0-8.7,6.9-15.2,15.3-15.2
		c7.5,0,12.3,5.3,13.4,8h-3.3c-3.2-4.8-8.4-5.3-10.2-5.3c-6.9,0-12.3,6-12.3,12.6c0,6.9,6,12.4,12.4,12.4c1.5,0,6.3-0.2,10.3-5.5
		H168.7z"/>
	<path fill="#262626" d="M184.2,39.4c8.2,0,15.5,6.5,15.5,15.2c0,8.6-7.3,15.2-15.5,15.2c-8.3,0-15.5-6.8-15.5-15
		C168.7,45.5,176.4,39.4,184.2,39.4z M184.2,67.1c6.8,0,12.6-5.5,12.6-12.5c0-6.9-5.7-12.6-12.6-12.6c-6.6,0-12.6,5.4-12.6,12.7
		C171.7,61.4,177.4,67.1,184.2,67.1z"/>
	<path fill="#262626" d="M200.9,39.9h4.5l10.7,25l10.7-25h4.5v29.3h-2.9V43.1h-0.1l-11,26.1h-2.5L204,43.1h-0.1v26.1h-2.9V39.9z"/>
	<path fill="#262626" d="M228.4,39.9h4.5l10.7,25l10.7-25h4.5v29.3h-2.9V43.1h-0.1l-11,26.1h-2.5l-10.9-26.1h-0.1v26.1h-2.9V39.9z"
		/>
	<path fill="#262626" d="M275.7,39.4c8.2,0,15.5,6.5,15.5,15.2c0,8.6-7.3,15.2-15.5,15.2c-8.3,0-15.5-6.8-15.5-15
		C260.2,45.5,267.9,39.4,275.7,39.4z M275.7,67.1c6.8,0,12.6-5.5,12.6-12.5c0-6.9-5.7-12.6-12.6-12.6c-6.6,0-12.6,5.4-12.6,12.7
		C263.1,61.4,268.8,67.1,275.7,67.1z"/>
	<path fill="#262626" d="M292.8,39.9h4l16.4,24.3h0.1V39.9h2.9v29.3h-2.9l-17.4-25.8h-0.1v25.8h-2.9V39.9z"/>
	<g>
		<g>
			<defs>
				<path id="SVGID_61_" d="M33.7,90.8c-1.9,0-3.7-1-4.7-2.7L17.6,68.3c-1-1.7-1-3.7,0-5.4l11.5-19.8c1-1.7,2.7-2.7,4.7-2.7h22.9
					c1.9,0,3.7,1,4.7,2.7l11.5,19.8c1,1.7,1,3.7,0,5.4L61.3,88.1c-1,1.7-2.7,2.7-4.7,2.7H33.7z"/>
			</defs>
			<clipPath id="SVGID_4_">
				<use xlink:href="#SVGID_61_"  overflow="visible"/>
			</clipPath>
			<g clip-path="url(#SVGID_4_)">
				<polygon fill="#EA178E" points="59.7,40.4 45.2,65.6 59.7,90.8 74.3,65.6 				"/>
				<polygon fill="#F0D175" points="30.6,40.4 16,65.6 45.2,65.6 59.7,40.4 				"/>
				<polygon fill="#28ADE3" points="16,65.6 45.2,65.6 59.7,90.8 30.6,90.8 				"/>
			</g>
		</g>
		<g>
			<defs>
				<path id="SVGID_63_" d="M57.2,50.5c1.2,0,2.2,0.6,2.8,1.6L66.9,64c0.6,1,0.6,2.2,0,3.2L60,79.1c-0.6,1-1.6,1.6-2.8,1.6H43.4
					c-1.2,0-2.2-0.6-2.8-1.6l-6.9-11.9c-0.6-1-0.6-2.2,0-3.2l6.9-11.9c0.6-1,1.6-1.6,2.8-1.6H57.2z"/>
			</defs>
			<clipPath id="SVGID_6_">
				<use xlink:href="#SVGID_63_"  overflow="visible"/>
			</clipPath>
			<g clip-path="url(#SVGID_6_)">
				<polygon fill="#EA178E" points="41.6,80.7 50.3,65.6 41.6,50.4 32.8,65.6 				"/>
				<polygon fill="#F0D175" points="59.1,80.7 67.8,65.6 50.3,65.6 41.6,80.7 				"/>
				<polygon fill="#28ADE3" points="67.8,65.6 50.3,65.6 41.6,50.4 59.1,50.4 				"/>
			</g>
		</g>
		<g opacity="0.33">
			<defs>
				<path id="SVGID_65_" opacity="0.33" d="M33.7,90.8c-1.9,0-3.7-1-4.7-2.7L17.6,68.3c-1-1.7-1-3.7,0-5.4l11.5-19.8
					c1-1.7,2.7-2.7,4.7-2.7h22.9c1.9,0,3.7,1,4.7,2.7l11.5,19.8c1,1.7,1,3.7,0,5.4L61.3,88.1c-1,1.7-2.7,2.7-4.7,2.7H33.7z"/>
			</defs>
			<clipPath id="SVGID_8_">
				<use xlink:href="#SVGID_65_"  overflow="visible"/>
			</clipPath>
			<g clip-path="url(#SVGID_8_)">
				<polygon fill="#EA178E" points="59.7,40.4 45.2,65.6 59.7,90.8 74.3,65.6 				"/>
				<polygon fill="#F0D175" points="30.6,40.4 16,65.6 45.2,65.6 59.7,40.4 				"/>
				<polygon fill="#28ADE3" points="16,65.6 45.2,65.6 59.7,90.8 30.6,90.8 				"/>
			</g>
		</g>
	</g>
	<g>
		<defs>
			<path id="SVGID_67_" d="M102.2,1.1c0.4-0.7,1.1-1.1,1.9-1.1l9.1,0c0.8,0,1.5,0.4,1.9,1.1l4.6,7.9c0.4,0.7,0.4,1.5,0,2.1L115,19
				c-0.4,0.7-1.1,1.1-1.9,1.1l-9.1,0c-0.8,0-1.5-0.4-1.9-1.1l-4.6-7.9c-0.4-0.7-0.4-1.5,0-2.1L102.2,1.1z"/>
		</defs>
		<clipPath id="SVGID_10_">
			<use xlink:href="#SVGID_67_"  overflow="visible"/>
		</clipPath>
		<g clip-path="url(#SVGID_10_)">
			<polygon fill="#EA178E" points="114.4,20.1 108.6,10 97,10 102.8,20.1 			"/>
			<polygon fill="#F0D175" points="120.2,10 114.4,0 108.6,10 114.4,20.1 			"/>
			<polygon fill="#28ADE3" points="114.4,0 108.6,10 97,10 102.8,0 			"/>
		</g>
	</g>
	<g>
		<g>
			<defs>
				<path id="SVGID_69_" d="M75.5,16.9c1-1.7,2.7-2.7,4.7-2.7l22.9,0c1.9,0,3.7,1,4.7,2.7l11.5,19.8c1,1.7,1,3.7,0,5.4l-11.5,19.8
					c-1,1.7-2.7,2.7-4.7,2.7l-22.9,0c-1.9,0-3.7-1-4.7-2.7L64.1,42.1c-1-1.7-1-3.7,0-5.4L75.5,16.9z"/>
			</defs>
			<clipPath id="SVGID_12_">
				<use xlink:href="#SVGID_69_"  overflow="visible"/>
			</clipPath>
			<g clip-path="url(#SVGID_12_)">
				<polygon fill="#EA178E" points="106.2,64.6 91.6,39.4 62.5,39.4 77.1,64.6 				"/>
				<polygon fill="#F0D175" points="120.8,39.4 106.2,14.2 91.6,39.4 106.2,64.6 				"/>
				<polygon fill="#28ADE3" points="106.2,14.2 91.6,39.4 62.5,39.4 77.1,14.2 				"/>
			</g>
		</g>
		<g>
			<defs>
				<path id="SVGID_71_" d="M98.7,57.4c-0.6,1-1.6,1.6-2.8,1.6l-13.8,0c-1.2,0-2.2-0.6-2.8-1.6l-6.9-11.9c-0.6-1-0.6-2.2,0-3.2
					l6.9-11.9c0.6-1,1.6-1.6,2.8-1.6l13.8,0c1.2,0,2.2,0.6,2.8,1.6l6.9,11.9c0.6,1,0.6,2.2,0,3.2L98.7,57.4z"/>
			</defs>
			<clipPath id="SVGID_14_">
				<use xlink:href="#SVGID_71_"  overflow="visible"/>
			</clipPath>
			<g clip-path="url(#SVGID_14_)">
				<polygon fill="#EA178E" points="80.3,28.7 89,43.9 106.5,43.9 97.8,28.7 				"/>
				<polygon fill="#F0D175" points="71.6,43.9 80.3,59 89,43.9 80.3,28.7 				"/>
				<polygon fill="#28ADE3" points="80.3,59 89,43.9 106.5,43.9 97.8,59 				"/>
			</g>
		</g>
		<g opacity="0.33">
			<defs>
				<path id="SVGID_73_" opacity="0.33" d="M75.5,16.9c1-1.7,2.7-2.7,4.7-2.7l22.9,0c1.9,0,3.7,1,4.7,2.7l11.5,19.8
					c1,1.7,1,3.7,0,5.4l-11.5,19.8c-1,1.7-2.7,2.7-4.7,2.7l-22.9,0c-1.9,0-3.7-1-4.7-2.7L64.1,42.1c-1-1.7-1-3.7,0-5.4L75.5,16.9z"
					/>
			</defs>
			<clipPath id="SVGID_16_">
				<use xlink:href="#SVGID_73_"  overflow="visible"/>
			</clipPath>
			<g clip-path="url(#SVGID_16_)">
				<polygon fill="#EA178E" points="106.2,64.6 91.6,39.4 62.5,39.4 77.1,64.6 				"/>
				<polygon fill="#F0D175" points="120.8,39.4 106.2,14.2 91.6,39.4 106.2,64.6 				"/>
				<polygon fill="#28ADE3" points="106.2,14.2 91.6,39.4 62.5,39.4 77.1,14.2 				"/>
			</g>
		</g>
	</g>
	<g>
		<defs>
			<path id="SVGID_75_" d="M102.2,130.2c0.4,0.7,1.1,1.1,1.9,1.1l9.1,0c0.8,0,1.5-0.4,1.9-1.1l4.6-7.9c0.4-0.7,0.4-1.5,0-2.1
				l-4.6-7.9c-0.4-0.7-1.1-1.1-1.9-1.1l-9.1,0c-0.8,0-1.5,0.4-1.9,1.1l-4.6,7.9c-0.4,0.7-0.4,1.5,0,2.1L102.2,130.2z"/>
		</defs>
		<clipPath id="SVGID_18_">
			<use xlink:href="#SVGID_75_"  overflow="visible"/>
		</clipPath>
		<g clip-path="url(#SVGID_18_)">
			<polygon fill="#EA178E" points="114.4,111.3 108.6,121.3 97,121.3 102.8,111.3 			"/>
			<polygon fill="#F0D175" points="120.2,121.3 114.4,131.3 108.6,121.3 114.4,111.3 			"/>
			<polygon fill="#28ADE3" points="114.4,131.3 108.6,121.3 97,121.3 102.8,131.3 			"/>
		</g>
	</g>
	<g>
		<g>
			<defs>
				<path id="SVGID_77_" d="M75.5,114.4c1,1.7,2.7,2.7,4.7,2.7l22.9,0c1.9,0,3.7-1,4.7-2.7l11.5-19.8c1-1.7,1-3.7,0-5.4l-11.5-19.8
					c-1-1.7-2.7-2.7-4.7-2.7l-22.9,0c-1.9,0-3.7,1-4.7,2.7L64.1,89.2c-1,1.7-1,3.7,0,5.4L75.5,114.4z"/>
			</defs>
			<clipPath id="SVGID_20_">
				<use xlink:href="#SVGID_77_"  overflow="visible"/>
			</clipPath>
			<g clip-path="url(#SVGID_20_)">
				<polygon fill="#EA178E" points="106.2,66.7 91.6,91.9 62.5,91.9 77.1,66.7 				"/>
				<polygon fill="#F0D175" points="120.8,91.9 106.2,117.1 91.6,91.9 106.2,66.7 				"/>
				<polygon fill="#28ADE3" points="106.2,117.1 91.6,91.9 62.5,91.9 77.1,117.1 				"/>
			</g>
		</g>
		<g>
			<defs>
				<path id="SVGID_79_" d="M98.7,73.9c-0.6-1-1.6-1.6-2.8-1.6l-13.8,0c-1.2,0-2.2,0.6-2.8,1.6l-6.9,11.9c-0.6,1-0.6,2.2,0,3.2
					l6.9,11.9c0.6,1,1.6,1.6,2.8,1.6l13.8,0c1.2,0,2.2-0.6,2.8-1.6l6.9-11.9c0.6-1,0.6-2.2,0-3.2L98.7,73.9z"/>
			</defs>
			<clipPath id="SVGID_22_">
				<use xlink:href="#SVGID_79_"  overflow="visible"/>
			</clipPath>
			<g clip-path="url(#SVGID_22_)">
				<polygon fill="#EA178E" points="80.3,102.6 89,87.4 106.5,87.4 97.8,102.6 				"/>
				<polygon fill="#F0D175" points="71.6,87.4 80.3,72.3 89,87.4 80.3,102.6 				"/>
				<polygon fill="#28ADE3" points="80.3,72.3 89,87.4 106.5,87.4 97.8,72.3 				"/>
			</g>
		</g>
		<g opacity="0.33">
			<defs>
				<path id="SVGID_81_" opacity="0.33" d="M75.5,114.4c1,1.7,2.7,2.7,4.7,2.7l22.9,0c1.9,0,3.7-1,4.7-2.7l11.5-19.8
					c1-1.7,1-3.7,0-5.4l-11.5-19.8c-1-1.7-2.7-2.7-4.7-2.7l-22.9,0c-1.9,0-3.7,1-4.7,2.7L64.1,89.2c-1,1.7-1,3.7,0,5.4L75.5,114.4z"
					/>
			</defs>
			<clipPath id="SVGID_24_">
				<use xlink:href="#SVGID_81_"  overflow="visible"/>
			</clipPath>
			<g clip-path="url(#SVGID_24_)">
				<polygon fill="#EA178E" points="106.2,66.7 91.6,91.9 62.5,91.9 77.1,66.7 				"/>
				<polygon fill="#F0D175" points="120.8,91.9 106.2,117.1 91.6,91.9 106.2,66.7 				"/>
				<polygon fill="#28ADE3" points="106.2,117.1 91.6,91.9 62.5,91.9 77.1,117.1 				"/>
			</g>
		</g>
	</g>
	<g>
		<path fill="#EA178E" d="M157.1,89.1c-2.6,2.3-5.1,2.4-8.4,2.4h-2.3v11.4h-5.5V73h7.9c3.3,0,5.8,0.1,8.4,2.4
			c2.1,1.8,2.8,4.2,2.8,6.9C159.9,84.9,159.1,87.4,157.1,89.1z M148.3,78.2h-2v8.2h1.8c2.9,0,6.3-0.4,6.3-4.1
			C154.4,78.6,151.2,78.2,148.3,78.2z"/>
		<path fill="#EA178E" d="M163,102.9V73H179v5.2h-10.5v7.3h10.1v5.2h-10.1v7.1H179v5.2H163z"/>
		<path fill="#EA178E" d="M197.7,103.5c-8.6,0-15.6-6.9-15.6-15.5c0-8.7,7-15.6,15.6-15.6c8.6,0,15.6,6.9,15.6,15.6
			C213.3,96.6,206.2,103.5,197.7,103.5z M197.7,77.6c-5.7,0-10.1,4.8-10.1,10.4c0,5.6,4.4,10.3,10.1,10.3s10.1-4.8,10.1-10.3
			C207.8,82.4,203.4,77.6,197.7,77.6z"/>
		<path fill="#EA178E" d="M232.2,89.1c-2.6,2.3-5.1,2.4-8.4,2.4h-2.3v11.4h-5.5V73h7.9c3.3,0,5.8,0.1,8.4,2.4
			c2.1,1.8,2.8,4.2,2.8,6.9C235,84.9,234.2,87.4,232.2,89.1z M223.4,78.2h-2v8.2h1.8c2.9,0,6.3-0.4,6.3-4.1
			C229.5,78.6,226.3,78.2,223.4,78.2z"/>
		<path fill="#EA178E" d="M237.7,102.9V73h5.5v24.7h9.1v5.2H237.7z"/>
		<path fill="#EA178E" d="M255,102.9V73h16.1v5.2h-10.5v7.3h10.1v5.2h-10.1v7.1h10.5v5.2H255z"/>
	</g>
</g>
<g id="Layer_2">
</g>
<g id="Layer_3">
	<g id="Layer_4">
	</g>
</g>
<g id="Layer_5">
</g>
</svg>
