<?xml version="1.0" encoding="utf-8"?>
<!-- Generator: Adobe Illustrator 18.0.0, SVG Export Plug-In . SVG Version: 6.00 Build 0)  -->
<!DOCTYPE svg PUBLIC "-//W3C//DTD SVG 1.1//EN" "http://www.w3.org/Graphics/SVG/1.1/DTD/svg11.dtd">
<svg version="1.1" xmlns="http://www.w3.org/2000/svg" xmlns:xlink="http://www.w3.org/1999/xlink" x="0px" y="0px"
	 viewBox="0 0 379.9 131.3" enable-background="new 0 0 379.9 131.3" xml:space="preserve">
<g id="Layer_1">
	<path fill="#262626" d="M194,74.2c-3.9,7.2-11.1,10.3-17,10.3c-10.3,0-19.3-8.1-19.3-19.1c0-10.9,8.7-19.1,19.3-19.1
		c9.5,0,15.5,6.6,16.9,10.1h-4.1c-4.1-6-10.6-6.7-12.8-6.7c-8.6,0-15.5,7.6-15.5,15.8c0,8.6,7.6,15.7,15.6,15.7
		c1.8,0,7.9-0.3,12.9-7H194z"/>
	<path fill="#262626" d="M213.6,81.2c8.5,0,15.9-7,15.9-15.7c0-8.6-7.1-15.8-15.9-15.8c-8.3,0-15.8,6.8-15.8,16
		C197.7,74,205,81.2,213.6,81.2 M213.6,46.3c10.4,0,19.6,8.2,19.6,19.1c0,10.9-9.2,19.1-19.6,19.1c-10.5,0-19.5-8.5-19.5-18.9
		C194,53.9,203.7,46.3,213.6,46.3"/>
	<polygon fill="#262626" points="234.6,46.9 240.3,46.9 253.8,78.4 267.3,46.9 273,46.9 273,83.9 269.3,83.9 269.3,50.9 269.2,50.9 
		255.3,83.9 252.2,83.9 238.4,50.9 238.3,50.9 238.3,83.9 234.6,83.9 	"/>
	<polygon fill="#262626" points="269.3,46.9 275,46.9 288.4,78.4 301.9,46.9 307.6,46.9 307.6,83.9 303.9,83.9 303.9,50.9 
		303.8,50.9 289.9,83.9 286.8,83.9 273.1,50.9 273,50.9 273,83.9 269.3,83.9 	"/>
	<path fill="#262626" d="M328.9,81.2c8.5,0,15.9-7,15.9-15.7c0-8.6-7.1-15.8-15.9-15.8c-8.3,0-15.8,6.8-15.8,16
		C313,74,320.3,81.2,328.9,81.2 M328.9,46.3c10.4,0,19.6,8.2,19.6,19.1c0,10.9-9.2,19.1-19.6,19.1c-10.5,0-19.5-8.5-19.5-18.9
		C309.3,53.9,319,46.3,328.9,46.3"/>
	<polygon fill="#262626" points="376.2,46.9 376.2,77.6 376.1,77.6 355.4,46.9 350.4,46.9 350.4,83.9 354.2,83.9 354.2,51.3 
		354.3,51.3 376.2,83.9 379.9,83.9 379.9,46.9 	"/>
	<g>
		<g>
			<path fill="none" stroke="#707070" stroke-width="1.2553" stroke-miterlimit="10" d="M71.8,65"/>
		</g>
	</g>
	<g>
		<path fill="none" stroke="#404040" stroke-width="1.2553" stroke-miterlimit="10" d="M0.9,65.3c2.7,0,2.7,0,5.5,0
			c2.7,0,2.7-0.4,5.5-0.4c2.7,0,2.7-0.1,5.4-0.1c2.7,0,2.7,0.2,5.4,0.2c2.7,0,2.7,0.3,5.4,0.3c2.7,0,2.7-0.6,5.5-0.6
			c2.7,0,2.7,0.6,5.5,0.6c2.7,0,2.7-0.5,5.5-0.5c2.7,0,2.7,0.3,5.5,0.3c2.7,0,2.7-0.1,5.5-0.1c2.7,0,2.7,0.1,5.5,0.1
			c2.7,0,2.7-0.2,5.5-0.2c2.7,0,3.2,1.8,5.6,0.4c2.4-1.4,1.1-2.7,2.5-5c1.4-2.4,1.3-2.4,2.7-4.8c1.4-2.4,1.8-2.1,3.1-4.5
			c1.4-2.4,1.1-2.6,2.4-4.9c1.4-2.4,1.3-2.4,2.6-4.8c1.4-2.4,1.5-2.3,2.9-4.6c1.4-2.4,1.4-2.3,2.8-4.7c1.4-2.4,1.5-2.3,2.9-4.7
			c1.4-2.4,1.3-2.4,2.7-4.8c1.4-2.4,1.2-2.5,2.5-4.9c1.4-2.4,1.7-2.2,3.1-4.5c1.4-2.4,0.9-2.6,2.3-5s1.3-2.4,2.7-4.8"/>
	</g>
	<g>
		<path fill="none" stroke="#262626" stroke-width="1.2553" stroke-miterlimit="10" d="M42.9,1.8c-1.6,0-3,0.4-4.5,0.9
			c-1.5,0.5-2.9,1.1-4.1,2.1c-1.2,1-2.4,2.1-3.2,3.5c-1.3,2.3-1,2.5-2.3,4.7c-1.3,2.3-1.2,2.3-2.5,4.6c-1.3,2.3-1.7,2.1-3,4.3
			c-1.3,2.3-1.7,2.1-3,4.3c-1.3,2.3-1.1,2.4-2.5,4.6c-1.3,2.3-1.1,2.4-2.4,4.7c-1.3,2.3-1.2,2.3-2.5,4.6c-1.3,2.3-1.3,2.3-2.6,4.5
			c-1.3,2.3-1.7,2.1-3,4.3c-1.3,2.3-0.9,2.5-2.2,4.8s-1.3,2.3-2.7,4.5c-1.2,2.1-1.8,4.3-1.8,6.6c0,0.1,0,0.1,0,0.1
			c0,2.3,0.2,4.8,1.4,6.9c1.3,2.3,1.8,2,3.1,4.2c1.3,2.3,1.2,2.3,2.5,4.6c1.3,2.3,1.1,2.4,2.4,4.7c1.3,2.3,1.5,2.2,2.8,4.5
			c1.3,2.3,1,2.5,2.3,4.7c1.3,2.3,1.9,1.9,3.2,4.2c1.3,2.3,1.3,2.3,2.6,4.6c1.3,2.3,0.8,2.6,2.1,4.8c1.3,2.3,1.8,2,3.1,4.2
			c1.3,2.3,0.7,2.6,2.1,4.9c1.3,2.3,1.9,1.9,3.2,4.2c0.8,1.3,1.5,2.7,2.6,3.6c1.2,1,2.5,1.6,3.9,2.2c1.4,0.5,2.8,0.7,4.4,0.7
			c2.7,0,2.7,0.5,5.3,0.5c2.7,0,2.7-0.6,5.3-0.6c2.7,0,2.7,0.2,5.3,0.2c2.7,0,2.7,0.2,5.3,0.2s2.7-0.1,5.3-0.1
			c2.7,0,2.7,0.3,5.3,0.3c2.7,0,2.7-0.1,5.3-0.1c2.7,0,2.7-0.3,5.3-0.3c2.7,0,2.7,0.6,5.3,0.6c2.7,0,2.7-0.3,5.3-0.3
			s2.7-0.2,5.3-0.2c1.5-0.1,3.1,0,4.5-0.5c1.4-0.6,2.8-1.3,4-2.3c1.1-1,2-2.3,2.8-3.6c1.3-2.3,1.6-2.1,2.9-4.4
			c1.3-2.3,0.9-2.5,2.2-4.8c1.3-2.3,1.4-2.2,2.7-4.5c1.3-2.3,1.7-2.1,3-4.3s1.3-2.3,2.6-4.5c1.3-2.3,0.9-2.5,2.2-4.8
			c1.3-2.3,1.2-2.4,2.5-4.6c1.3-2.3,1.5-2.2,2.8-4.4c1.3-2.3,1.7-2.1,3-4.3c1.3-2.3,0.7-2.6,2-4.9c1.3-2.3,2-1.9,3.3-4.2
			c0.8-1.4,0.7-3.1,0.9-4.7c0.3-1.6,0.7-3.1,0.4-4.7c-0.3-1.5-0.9-3-1.7-4.4c-1.3-2.3-1.2-2.3-2.6-4.6c-1.3-2.3-1.6-2.1-2.9-4.4
			c-1.3-2.3-0.8-2.6-2.1-4.8c-1.3-2.3-1.8-2-3.1-4.3s-1.4-2.2-2.7-4.5c-1.3-2.3-0.8-2.6-2.1-4.8c-1.3-2.3-1.7-2-3-4.3
			c-1.3-2.3-1.4-2.2-2.8-4.5c-1.3-2.3-1.1-2.4-2.4-4.7c-1.3-2.3-1.2-2.3-2.5-4.6s-1.1-2.4-2.4-4.7c-0.8-1.4-2-2.6-3.2-3.6
			c-1.2-1-2.7-1.5-4.2-2.1c-1.5-0.5-3-1.4-4.6-1.4c-2.6,0-2.6,0.7-5.2,0.7c-2.6,0-2.6,0.1-5.2,0.1c-2.6,0-2.6-0.4-5.2-0.4
			c-2.6,0-2.6,0.1-5.2,0.1c-2.6,0-2.6,0.2-5.2,0.2c-2.6,0-2.6,0-5.2,0c-2.6,0-2.6-0.2-5.2-0.2c-2.6,0-2.6-0.5-5.2-0.5
			c-2.6,0-2.6,0.1-5.2,0.1c-2.6,0-2.6-0.2-5.3-0.1C45.5,1.3,45.6,1.8,42.9,1.8z"/>
	</g>
	<g>
		<path fill="none" stroke="#404040" stroke-width="1.2553" stroke-miterlimit="10" d="M71.9,65c1.6,2.8,1.6,2.8,3.2,5.6
			c1.6,2.8,0,5.6,3.2,5.6c3.2,0,1.6-2.8,3.2-5.6s3.3-2.4,3.3-5.6c0-3.2-1.6-2.8-3.3-5.6c-1.6-2.8,0-5.6-3.2-5.6
			c-3.2,0-1.6,2.8-3.2,5.6S73.4,62.2,71.9,65"/>
	</g>
	<g>
		<polyline fill="none" stroke="#404040" stroke-width="1.2553" stroke-miterlimit="10" points="63.4,102.1 64.1,100.9 64.8,99.7 
			65.5,98.4 66.2,97.2 66.9,96 67.6,94.7 68.3,93.5 69,92.3 69.8,91 70.5,89.8 71.2,88.6 71.9,87.4 72.6,86.2 73.3,84.9 74,83.7 
			74.7,82.5 75.5,81.2 76.2,80 76.9,78.8 77.6,77.5 78.3,76.3 77.6,75 76.8,73.8 76.1,72.6 75.4,71.3 74.7,70.1 74,68.8 73.2,67.6 
			72.5,66.3 71.8,65 		"/>
	</g>
	<g>
		<path fill="none" stroke="#404040" stroke-width="1.2553" stroke-miterlimit="10" d="M71.8,65c1.6-2.8,1.6-2.8,3.2-5.6
			c1.6-2.8,1.6-2.8,3.2-5.6"/>
	</g>
	<g>
		<path fill="none" stroke="#404040" stroke-width="1.2553" stroke-miterlimit="10" d="M93.8,103.2"/>
	</g>
	<g>
		<path fill="none" stroke="#404040" stroke-width="1.2553" stroke-miterlimit="10" d="M78.3,76.3"/>
	</g>
	<g>
		<path fill="none" stroke="#262626" stroke-width="1.2553" stroke-miterlimit="10" d="M63.4,28c1.2,2.2,1.3,2.1,2.5,4.3
			c1.2,2.1,1.2,2.2,2.4,4.3c1.2,2.2,1.3,2.1,2.6,4.2c1.2,2.2,1.1,2.2,2.4,4.4c1.2,2.2,1.4,2.1,2.6,4.2c1.2,2.2,0,4.4,2.4,4.3
			c2.6-0.1,1.3-2.3,2.5-4.5c1.3-2.2,1.3-2.2,2.6-4.5c1.3-2.2,1.4-2.2,2.7-4.4c1.3-2.2,1.3-2.3,2.5-4.5c1.3-2.2,1.2-2.3,2.5-4.5
			s1.3-2.2,2.6-4.5"/>
	</g>
	<g>
		<path fill="none" stroke="#262626" stroke-width="1.2553" stroke-miterlimit="10" d="M67.5,26.8c-1.5,0-2.9,0.3-4.1,1
			c-1.2,0.7-2.2,1.8-2.9,3.1c-1.2,2.1-1.3,2.1-2.5,4.3c-1.2,2.1-1.1,2.2-2.4,4.3c-1.2,2.1-1.5,2-2.7,4.2c-1.2,2.1-1,2.3-2.2,4.4
			c-1.2,2.1-1.2,2.2-2.5,4.3c-1.2,2.1-1.6,2-2.8,4.1s-1.2,2.2-2.4,4.3c-0.7,1.3-1.1,2.8-1.1,4.2c0,1.4,0.6,2.8,1.3,4
			c1.2,2.1,1.2,2.2,2.4,4.3c1.2,2.1,1.1,2.2,2.4,4.4c1.2,2.1,1.3,2.1,2.5,4.2c1.2,2.1,1.1,2.2,2.3,4.4c1.2,2.1,1.6,1.9,2.8,4.1
			c1.2,2.1,0.8,2.4,2.1,4.5s1.4,2.1,2.6,4.2c0.7,1.3,1.9,2.2,3.1,2.9c1.2,0.7,2.6,1,4,1c2.5,0,2.5,0.1,4.9,0.1c2.5,0,2.5,0,4.9,0
			c2.5,0,2.5,0.1,5,0.1c2.5,0,2.5,0.2,4.9,0.2c2.5,0,2.5-0.2,5-0.2c2.5,0,2.5-0.1,5-0.1c2.5,0,2.5,0.1,5,0.1c1.5,0,2.9-0.4,4.1-1.1
			c1.2-0.7,2.3-1.8,3-3c1.2-2.1,1.1-2.2,2.4-4.3c1.2-2.1,1.2-2.2,2.4-4.3c1.2-2.1,1.5-2,2.7-4.2c1.2-2.1,0.9-2.3,2.2-4.5
			c1.2-2.1,1.6-1.9,2.8-4.1c1.2-2.1,0.9-2.3,2.2-4.5c1.2-2.1,1.3-2.1,2.6-4.2c0.7-1.3,1-2.7,1-4.1c0-1.4-0.3-2.8-1.1-4
			c-1.2-2.1-1-2.3-2.3-4.4c-1.2-2.1-1.4-2.1-2.6-4.2c-1.2-2.1-1.4-2-2.7-4.2c-1.2-2.1-1.1-2.2-2.4-4.4c-1.2-2.1-1.1-2.2-2.4-4.3
			c-1.2-2.1-1.1-2.2-2.3-4.4c-1.2-2.1-1.3-2.1-2.5-4.3c-0.7-1.3-2-2-3.2-2.7c-1.2-0.7-2.5-1.1-4-1.1c-2.5,0-2.5,0-4.9,0
			c-2.5,0-2.5-0.1-4.9-0.1c-2.5,0-2.5,0-5,0c-2.5,0-2.5,0.1-4.9,0.1c-2.5,0-2.5,0.1-5,0.1c-2.5,0-2.5-0.1-5-0.2
			C69.9,26.9,69.9,26.8,67.5,26.8z"/>
	</g>
	<g>
		<polyline fill="none" stroke="#404040" stroke-width="1.2553" stroke-miterlimit="10" points="127.6,65 126.2,65.1 124.8,65.1 
			123.3,65 121.9,65 120.5,65 119.1,65.1 117.6,65.1 116.2,65 114.8,65.1 113.4,65.1 111.9,65.1 110.5,65.1 109.1,65 107.7,65 
			106.2,65 104.8,65 103.4,65 101.9,65 100.5,65 99.1,65.1 97.7,65.1 96.2,65 94.8,65 93.4,65 92,65.1 90.5,65 89.1,65 87.7,65 
			86.2,65 84.8,65.1 84,66.3 83.3,67.5 82.6,68.8 82,70.1 81.2,71.3 80.5,72.5 79.7,73.8 79,75 78.3,76.3 79,77.5 79.7,78.7 
			80.4,79.9 81.1,81.2 81.8,82.4 82.5,83.6 83.1,84.8 83.9,86 84.5,87.2 85.2,88.4 85.9,89.6 86.6,90.9 87.3,92.1 88,93.3 
			88.7,94.5 89.4,95.7 90.1,96.9 90.8,98.2 91.4,99.4 92.1,100.6 92.9,101.8 93.6,103 94.3,104.2 94.9,105.5 95.6,106.7 96.3,107.9 
			97.1,109.1 97.7,110.3 98.4,111.6 99.1,112.8 99.8,114 100.5,115.2 101.1,116.5 101.8,117.7 102.6,118.9 103.3,120.1 104,121.3 
			104.6,122.6 105.4,123.8 106.1,125 106.8,126.2 107.5,127.4 		"/>
	</g>
	<g>
		<g>
			<g>
				<path fill="none" stroke="#EA178E" stroke-width="0.8787" stroke-linecap="round" stroke-linejoin="round" d="M156.7,119
					c0,0,0.8-0.9,0.9-0.9c0.4,0.4-1,2.2-0.7,2.5l1.8-1.8c0.2,0.2-0.9,3.4-0.9,3.4l3.6-3.6l-3.3,3.8c0,0,3.2-4.3,3.8-3.8l-4.3,4.7
					c1.1,1.1,5.1-5.7,5.4-5.4c1.3,1.3-5,5.4-3.7,6.7c0,0,4.3-6,5.2-5.2c0.2,0.2-4.9,5.1-3.6,6.4l3.9-3.9l-3.9,4.1
					c0.4,0.4,3.6-5.2,4.4-4.4c0.8,0.8-2.4,5.5-1.8,6.1c0,0,4-4.8,4.4-4.4c0,0-3.1,5.1-2.5,5.7c1.2,1.2,5.8-6.5,6.2-6.2
					c0.7,0.7-7.4,4.9-6.1,6.2c0.2,0.2,6.4-6.4,6.4-6.4c0.4,0.4-5.4,6.3-5.4,6.3l14.9-14.9c1.9,1.9-14.4,14.2-12.4,16.2
					c0,0,10.7-13.4,12.1-12.1c2,2-9.8,11.3-9.4,11.7c0,0,7.3-11.7,9.5-9.5c0,0-6.2,6.6-5.1,7.7c0.1,0.1,3.2-4.5,3.8-3.8"/>
				<path fill="none" stroke="#EA178E" stroke-width="0.8787" stroke-linecap="round" stroke-linejoin="round" d="M167.5,97.6
					c1,1,4.2-7,5.6-5.6c0,0-5.7,4.3-4.6,5.4c0.8,0.8,5.1-5.4,5.2-5.2c0.1,0.1-3.7,5.9-3.7,5.9s3.9-5.7,4.8-4.8c0,0-2.6,5.2-1.9,5.9
					c0.6,0.6,4.2-4.2,4.2-4.2c1.3,1.3-4.6,5.9-4.4,6.1c1.1,1.1,4.7-6.3,5.5-5.5c1.1,1.1-6.4,4.3-5,5.7c0,0,4.6-5.4,5-5
					c0.8,0.8-2.9,5.1-2.9,5.1s2.9-4.4,3.7-3.7c0.2,0.2-0.3,3.8-0.3,3.8s1.1-1.4,1.3-1.3c0.1,0.1,0.4,0.8,0.6,0.9
					c0,0,0.1-0.1,0.1-0.1"/>
				<path fill="none" stroke="#EA178E" stroke-width="0.8787" stroke-linecap="round" stroke-linejoin="round" d="M159.8,96
					c0.7,0.7,3.6-3.6,3.6-3.6c0.3,0.3-4.5,8.7-4.5,8.7S166.3,88.3,169,91c0,0-11.1,11.3-10.2,12.1c0.9,0.9,12.1-12.9,12.5-12.5
					c2.8,2.8-11.8,14.9-11.8,14.9s5.5-6.1,5.8-5.8c1.5,1.5-5.8,7.8-5.4,8.3c0.9,0.9,3.8-6.4,5.1-5.1c0.9,0.9-3.5,6.3-3.5,6.3
					l4.7-4.7l-3.5,5c1.1,1.1,4.9-4.9,4.9-4.9c0.9,0.9-4.3,5.3-3.6,6.1c0.5,0.5,5-5.3,5.2-5.2c0,0-3.8,4.6-3,5.4
					c0.5,0.5,4.5-4.5,4.5-4.5c0.3,0.3-2.4,5.6-2.4,5.6c1,1,4.7-6.8,5.8-5.8c1.5,1.5-5.8,6.3-5.8,6.3c0.5,0.5,5.2-6.7,5.9-5.9
					c0,0-6.4,4.8-5,6.3c0.4,0.4,4.9-4.9,4.9-4.9c0,0-4,4.4-4,4.4l4.7-4.7c0,0-5.3,5.7-5.1,5.9c1.3,1.3,5.5-5.5,5.5-5.5
					c0.4,0.4-3.7,5.2-2.9,6c0.2,0.2,4.6-5.5,5-5c1.1,1.1-4.6,5.9-4.6,5.9l4.8-4.8c0,0-5.5,5-4.4,6.1l5.7-5.7
					c1.5,1.5-4.2,6.8-4.2,6.8c0.6,0.6,5.3-6,5.7-5.7c0.5,0.5-6.9,9.4-6.9,9.4c0.2,0.2,7-7,7-7"/>
				<path fill="none" stroke="#EA178E" stroke-width="0.8787" stroke-linecap="round" stroke-linejoin="round" d="M192.7,114.1
					c0.6,0.6,6.1-8,7.1-7.1c1.3,1.3-6.5,6.2-5.4,7.2l6.5-6.5c0.4,0.4-3.6,6.2-3.6,6.2l6.4-6.4l-5.6,6.2c0,0,5.2-7,6.1-6.1l-6.5,6.8
					c1.7,1.7,7.1-7.9,7.5-7.5c1.4,1.4-5.3,5.6-4,6.9c0,0,3.4-4.9,4.1-4.1c0.1,0.1-1.7,3.1-1,3.9l0.5-0.5l-0.4,0.6
					c0.1,0.1,0.6-1,0.8-0.8c0.1,0.1-0.2,0.9-0.1,1c0,0,0.3-0.3,0.3-0.3"/>
				<path fill="none" stroke="#EA178E" stroke-width="0.8787" stroke-linecap="round" stroke-linejoin="round" d="M193.3,97.8
					c1.1,1.1,4.4-7.4,5.9-5.9c0,0-6.6,4.8-5.3,6.1c0.9,0.9,6-6.4,6.2-6.2c0.1,0.1-4.5,6.8-4.5,6.8s5.2-7.7,6.5-6.5
					c0,0-2.4,5.1-1.8,5.7c0.8,0.8,5.3-5.3,5.3-5.3c1.3,1.3-4.5,5.8-4.3,5.9c0.9,0.9,4-5.4,4.7-4.7c0.8,0.8-4.6,3.2-3.5,4.3
					c0,0,3-3.5,3.2-3.2c0.4,0.4-0.7,2.9-0.7,2.9s0.5-1,0.8-0.8c0.1,0.1,0.1,0.9,0.1,0.9s0-0.1,0,0"/>
				<path fill="none" stroke="#EA178E" stroke-width="0.8787" stroke-linecap="round" stroke-linejoin="round" d="M185.5,92.3
					c0.1,0.1,1-1,1-1c0.2,0.2-0.2,4.3-0.2,4.3s2.8-5.1,3.9-3.9c0,0-4.5,5.7-4.1,6.1c0.5,0.5,6.3-6.7,6.5-6.5
					c1.7,1.7-6.5,9.6-6.5,9.6s8.3-9.2,8.7-8.7c2.3,2.3-10.1,11.5-9.3,12.2c2.1,2.1,9.2-15.3,12.2-12.2c2.3,2.3-12,14.8-12,14.8
					l6.5-6.5l-6.2,7.7c1.5,1.5,6.7-6.7,6.7-6.7c1.5,1.5-8.2,8.2-6.9,9.4c0.7,0.7,6.6-6.9,6.8-6.8c0,0-7.7,7.3-6.3,8.7
					c0.7,0.7,5.9-5.9,5.9-5.9c0.5,0.5-6.2,9.5-6.2,9.5c1.7,1.7,7.8-11.5,9.6-9.6c2.5,2.5-10,10.5-10,10.5c1,1,9-11.7,10.3-10.3
					c0,0-13.1,8.9-10.3,11.6c0.8,0.8,10.7-10.7,10.7-10.7c0,0-10.1,10.6-10.1,10.6l10.9-10.9c0,0-12.5,12.2-12,12.8
					c3.1,3.1,12.7-12.7,12.7-12.7c1.2,1.2-14.4,12.8-12.1,15.2c0.3,0.3,6.2-7.4,6.8-6.8c1.7,1.7-7.1,8.3-7.1,8.3l6.6-6.6
					c0,0-8.6,7-6.9,8.6l7.4-7.4c2.1,2.1-6.6,9.1-6.6,9.1c0.7,0.7,6.6-7.4,7-7c0.4,0.4-5.3,8.6-5.3,8.6c0.2,0.2,6.6-6.6,6.6-6.6
					l-5.3,6.3c0.5,0.5,6.8-6.8,6.8-6.8c1.3,1.3-3.8,6.6-3.8,6.6c0.9,0.9,5.1-8.4,6.8-6.8c0.6,0.6-2.4,6.2-2.4,6.2
					c0.9,0.9,5.3-5.7,5.5-5.5c0.5,0.5-4.6,5.6-4.6,5.6l6-6c0,0-2.8,5.6-2.7,5.8c0.2,0.2,5.6-5.6,5.6-5.6c1,1-5.2,6.5-5.2,6.5
					c0.7,0.7,4.8-5.6,5.2-5.2c0.7,0.7-1.5,4.8-1.5,4.8s0.8-1,0.9-0.9l0.2,0.8c0,0,0.5-0.6,0.6-0.6"/>
				<path fill="none" stroke="#EA178E" stroke-width="0.8787" stroke-linecap="round" stroke-linejoin="round" d="M235.9,92.3
					c0,0,0.9-1,0.9-0.9c0.4,0.4-1.4,2.5-1,2.8l2.1-2.1c0.2,0.2-1.8,4.3-1.8,4.3l4.5-4.5l-4.3,4.8c0,0,4-5.5,4.8-4.8l-5.4,5.8
					c1.4,1.4,6.2-6.8,6.5-6.5c1.9,1.9-7.7,7-5.9,8.8c0,0,5.6-7.9,6.7-6.7c0.2,0.2-8.5,7.3-6.5,9.3l6-6l-6.1,6.3
					c0.6,0.6,5.3-7.7,6.5-6.5c1.6,1.6-7.5,9.4-6.3,10.6c0,0,5.8-7,6.4-6.4c0,0-7.7,8.7-6.7,9.8c1.3,1.3,6.6-7.3,7-7
					c0.8,0.8-8.5,5.7-7,7.1c0.2,0.2,7.1-7.1,7.1-7.1c0.5,0.5-6.8,7.8-6.8,7.8l6.9-6.9c1.3,1.3-9.1,10.2-7.7,11.5
					c0,0,6.2-7.7,6.9-6.9c1.5,1.5-7.2,8.9-6.9,9.2c0,0,5.6-8.9,7.2-7.2c0,0-8.5,6.8-7.2,8.1c0.3,0.3,6.2-9.3,7.7-7.7"/>
				<path fill="none" stroke="#EA178E" stroke-width="0.8787" stroke-linecap="round" stroke-linejoin="round" d="M220.1,101.7
					c0.7,0.7,2.7-4.6,3.6-3.6c0,0-4.5,3.5-3.6,4.4c0.6,0.6,3.8-4.1,3.9-3.9c0.1,0.1-3.7,5.9-3.7,5.9s3.4-5,4.2-4.2c0,0-2.7,5.3-2,6
					c0.6,0.6,3.6-3.6,3.6-3.6c1.1,1.1-3.8,5.2-3.7,5.3c0.9,0.9,4-5.3,4.6-4.6c0.9,0.9-5.1,3.5-3.9,4.7c0,0,3.6-4.2,3.9-3.9
					c0.8,0.8-2.8,5-2.8,5s2.9-4.4,3.6-3.6c0.4,0.4-2.5,6-2.5,6s3.5-4.3,3.9-3.9c0.3,0.3-3.1,5-2.4,5.7c0.2,0.2,4.1-4.1,4.1-4.1l-4,5
					c0.8,0.8,3.2-4.3,3.7-3.7c0,0-3.5,3.3-3.2,3.5l3.9-3.9c1.1,1.1-4.6,5.7-4.6,5.7s4.1-6.2,5.2-5.2c0,0-4.3,4.4-3.3,5.4l3.8-3.8
					c0.4,0.4-3.8,7.1-3.6,7.3l4.5-4.5c0.1,0.1-3.9,5.3-3,6.1c0,0,3.3-4.5,3.9-3.9c1.2,1.2-2.7,5.9-2.7,5.9c0.6,0.6,3-4.7,3.9-3.9
					c0,0-3.2,6.4-3,6.6c0,0,7.7-12.5,10.1-10.1c1.2,1.2-7.8,11.8-7.8,11.8c1.2,1.2,7.4-9.9,8.7-8.7l-8.2,10.5l7.3-7.3
					c1.2,1.2-5.6,6.6-5.6,6.6s6.3-7.1,6.7-6.7c0,0-5.3,6.8-5.2,6.9c0.4,0.4,4.9-4.9,4.9-4.9c0.1,0.1-4.5,5.7-4.5,5.7
					c0.4,0.4,3.7-4.2,3.9-3.9c0.5,0.5-3,3.6-3,3.6s2.3-3,2.6-2.6c0.3,0.3-0.5,2.4-0.5,2.4c0.2,0.2,1.6-1.6,1.6-1.6s-1.3,1.9-1.2,2
					l0.2-0.2"/>
				<path fill="none" stroke="#EA178E" stroke-width="0.8787" stroke-linecap="round" stroke-linejoin="round" d="M212.3,92.3
					c0.1,0.1,1-1,1-1c0.2,0.2-0.2,4.3-0.2,4.3s2.8-5.1,3.9-3.9c0,0-4.5,5.7-4.1,6.1c0.5,0.5,6.3-6.8,6.5-6.5
					c1.7,1.7-6.5,9.6-6.5,9.6s7.2-8.1,7.7-7.7c2.1,2.1-8.9,10.5-8.2,11.2c1.6,1.6,7-11.6,9.3-9.3c1.8,1.8-9.1,11.9-9.1,11.9
					l10.1-10.1l-9.8,11.3c2.4,2.4,10.9-10.9,10.9-10.9c2.3,2.3-13,11.7-11.1,13.6c0.7,0.7,6.6-6.9,6.8-6.8c0,0-7.7,7.3-6.3,8.7
					c0.7,0.7,5.9-5.9,5.9-5.9c0.5,0.5-6.2,9.5-6.2,9.5c1.3,1.3,5.8-8.5,7.2-7.2c1.9,1.9-7.6,8.1-7.6,8.1c0.7,0.7,6.4-8.3,7.4-7.4
					c0,0-9.4,6.6-7.4,8.7c0.5,0.5,6.4-6.4,6.4-6.4c0,0-5.9,6.3-5.9,6.3l6.2-6.2c0,0-7.6,7.7-7.3,8.1c1.7,1.7,7.1-7.1,7.1-7.1
					c0.7,0.7-7.9,8.2-6.5,9.6c0.3,0.3,6.2-7.4,6.8-6.8c1.7,1.7-7.1,8.3-7.1,8.3l6.6-6.6c0,0-8.6,7-6.9,8.6l7.4-7.4
					c2.1,2.1-6.6,9.1-6.6,9.1c0.7,0.7,6.6-7.4,7-7c0.4,0.4-5.3,8.6-5.3,8.6c0.2,0.2,4.6-4.6,4.6-4.6l-3.3,4.3
					c0.2,0.2,3.7-3.7,3.7-3.7c0.6,0.6-0.8,3.6-0.8,3.6c0.1,0.1,0.8-1.1,0.9-0.9c0.1,0.1-0.5,0.8-0.5,0.8c0,0,0.3-0.3,0.3-0.3"/>
				<path fill="none" stroke="#EA178E" stroke-width="0.8787" stroke-linecap="round" stroke-linejoin="round" d="M246.9,119
					c0,0,0.8-0.9,0.9-0.9c0.4,0.4-1,2.2-0.7,2.5l1.8-1.8c0.2,0.2-0.9,3.4-0.9,3.4l3.6-3.6l-3.3,3.8c0,0,3.2-4.3,3.8-3.8l-4.3,4.7
					c1.1,1.1,5.1-5.7,5.4-5.4c1.3,1.3-5,5.4-3.7,6.7c0,0,4.3-6,5.2-5.2c0.2,0.2-4.9,5.1-3.6,6.4l3.9-3.9l-3.9,4.1
					c0.4,0.4,3.6-5.2,4.4-4.4c0.8,0.8-2.4,5.5-1.8,6.1c0,0,4-4.8,4.4-4.4c0,0-3.1,5.1-2.5,5.7c1.2,1.2,5.8-6.5,6.2-6.2
					c0.7,0.7-7.4,4.9-6.1,6.2c0.2,0.2,6.4-6.4,6.4-6.4c0.4,0.4-5.4,6.3-5.4,6.3l14.9-14.9c1.9,1.9-14.4,14.2-12.4,16.2
					c0,0,10.7-13.4,12.1-12.1c2,2-9.8,11.3-9.4,11.7c0,0,7.3-11.7,9.5-9.5c0,0-6.2,6.6-5.1,7.7c0.1,0.1,3.2-4.5,3.8-3.8"/>
				<path fill="none" stroke="#EA178E" stroke-width="0.8787" stroke-linecap="round" stroke-linejoin="round" d="M257.8,97.6
					c1,1,4.2-7,5.6-5.6c0,0-5.7,4.3-4.6,5.4c0.8,0.8,5.1-5.4,5.2-5.2c0.1,0.1-3.7,5.9-3.7,5.9s3.9-5.7,4.8-4.8c0,0-2.6,5.2-1.9,5.9
					c0.6,0.6,4.2-4.2,4.2-4.2c1.3,1.3-4.6,5.9-4.4,6.1c1.1,1.1,4.7-6.3,5.5-5.5c1.1,1.1-6.4,4.3-5,5.7c0,0,4.6-5.4,5-5
					c0.8,0.8-2.9,5.1-2.9,5.1s2.9-4.4,3.7-3.7c0.2,0.2-0.3,3.8-0.3,3.8s1.1-1.4,1.3-1.3c0.1,0.1,0.4,0.8,0.6,0.9
					c0,0,0.1-0.1,0.1-0.1"/>
				<path fill="none" stroke="#EA178E" stroke-width="0.8787" stroke-linecap="round" stroke-linejoin="round" d="M250.1,96
					c0.7,0.7,3.6-3.6,3.6-3.6c0.3,0.3-4.5,8.7-4.5,8.7s7.4-12.9,10.1-10.1c0,0-11.1,11.3-10.2,12.1c0.9,0.9,12.1-12.9,12.5-12.5
					c2.8,2.8-11.8,14.9-11.8,14.9s5.5-6.1,5.8-5.8c1.5,1.5-5.8,7.8-5.4,8.3c0.9,0.9,3.8-6.4,5.1-5.1c0.9,0.9-3.5,6.3-3.5,6.3
					l4.7-4.7l-3.5,5c1.1,1.1,4.9-4.9,4.9-4.9c0.9,0.9-4.3,5.3-3.6,6.1c0.5,0.5,5-5.3,5.2-5.2c0,0-3.8,4.6-3,5.4
					c0.5,0.5,4.5-4.5,4.5-4.5c0.3,0.3-2.4,5.6-2.4,5.6c1,1,4.7-6.8,5.8-5.8c1.5,1.5-5.8,6.3-5.8,6.3c0.5,0.5,5.2-6.7,5.9-5.9
					c0,0-6.4,4.8-5,6.3c0.4,0.4,4.9-4.9,4.9-4.9c0,0-4,4.4-4,4.4l4.7-4.7c0,0-5.3,5.7-5.1,5.9c1.3,1.3,5.5-5.5,5.5-5.5
					c0.4,0.4-3.7,5.2-2.9,6c0.2,0.2,4.6-5.5,5-5c1.1,1.1-4.6,5.9-4.6,5.9l4.8-4.8c0,0-5.5,5-4.4,6.1l5.7-5.7
					c1.5,1.5-4.2,6.8-4.2,6.8c0.6,0.6,5.3-6,5.7-5.7c0.5,0.5-6.9,9.4-6.9,9.4c0.2,0.2,7-7,7-7"/>
				<path fill="none" stroke="#EA178E" stroke-width="0.8787" stroke-linecap="round" stroke-linejoin="round" d="M283,114.1
					c0.6,0.6,6.1-8,7.1-7.1c1.3,1.3-6.5,6.2-5.4,7.2l6.5-6.5c0.4,0.4-3.6,6.2-3.6,6.2l6.4-6.4l-5.6,6.2c0,0,5.2-7,6.1-6.1l-6.5,6.8
					c1.7,1.7,7.1-7.9,7.5-7.5c1.4,1.4-5.3,5.6-4,6.9c0,0,3.4-4.9,4.1-4.1c0.1,0.1-1.7,3.1-1,3.9l0.5-0.5l-0.4,0.6
					c0.1,0.1,0.6-1,0.8-0.8c0.1,0.1-0.2,0.9-0.1,1c0,0,0.3-0.3,0.3-0.3"/>
				<path fill="none" stroke="#EA178E" stroke-width="0.8787" stroke-linecap="round" stroke-linejoin="round" d="M283.6,97.8
					c1.1,1.1,4.4-7.4,5.9-5.9c0,0-6.6,4.8-5.3,6.1c0.9,0.9,6-6.4,6.2-6.2c0.1,0.1-4.5,6.8-4.5,6.8s5.2-7.7,6.5-6.5
					c0,0-2.4,5.1-1.8,5.7c0.8,0.8,5.3-5.3,5.3-5.3c1.3,1.3-4.5,5.8-4.3,5.9c0.9,0.9,4-5.4,4.7-4.7c0.8,0.8-4.6,3.2-3.5,4.3
					c0,0,3-3.5,3.2-3.2c0.4,0.4-0.7,2.9-0.7,2.9s0.5-1,0.8-0.8c0.1,0.1,0.1,0.9,0.1,0.9s0-0.1,0,0"/>
				<path fill="none" stroke="#EA178E" stroke-width="0.8787" stroke-linecap="round" stroke-linejoin="round" d="M275.7,92.3
					c0.1,0.1,1-1,1-1c0.2,0.2-0.2,4.3-0.2,4.3s2.8-5.1,3.9-3.9c0,0-4.5,5.7-4.1,6.1c0.5,0.5,6.3-6.7,6.5-6.5
					c1.7,1.7-6.5,9.6-6.5,9.6s8.3-9.2,8.7-8.7c2.3,2.3-10.1,11.5-9.3,12.2c2.1,2.1,9.2-15.3,12.2-12.2c2.3,2.3-12,14.8-12,14.8
					l6.5-6.5l-6.2,7.7c1.5,1.5,6.7-6.7,6.7-6.7c1.5,1.5-8.2,8.2-6.9,9.4c0.7,0.7,6.6-6.9,6.8-6.8c0,0-7.7,7.3-6.3,8.7
					c0.7,0.7,5.9-5.9,5.9-5.9c0.5,0.5-6.2,9.5-6.2,9.5c1.7,1.7,7.8-11.5,9.6-9.6c2.5,2.5-10,10.5-10,10.5c1,1,9-11.7,10.3-10.3
					c0,0-13.1,8.9-10.3,11.6c0.8,0.8,10.7-10.7,10.7-10.7c0,0-10.1,10.6-10.1,10.6l10.9-10.9c0,0-12.5,12.2-12,12.8
					c3.1,3.1,12.7-12.7,12.7-12.7c1.2,1.2-14.4,12.8-12.1,15.2c0.3,0.3,6.2-7.4,6.8-6.8c1.7,1.7-7.1,8.3-7.1,8.3l6.6-6.6
					c0,0-8.6,7-6.9,8.6l7.4-7.4c2.1,2.1-6.6,9.1-6.6,9.1c0.7,0.7,6.6-7.4,7-7c0.4,0.4-5.3,8.6-5.3,8.6c0.2,0.2,6.6-6.6,6.6-6.6
					l-5.3,6.3c0.5,0.5,6.8-6.8,6.8-6.8c1.3,1.3-3.8,6.6-3.8,6.6c0.9,0.9,5.1-8.4,6.8-6.8c0.6,0.6-2.4,6.2-2.4,6.2
					c0.9,0.9,5.3-5.7,5.5-5.5c0.5,0.5-4.6,5.6-4.6,5.6l6-6c0,0-2.8,5.6-2.7,5.8c0.2,0.2,5.6-5.6,5.6-5.6c1,1-5.2,6.5-5.2,6.5
					c0.7,0.7,4.8-5.6,5.2-5.2c0.7,0.7-1.5,4.8-1.5,4.8s0.8-1,0.9-0.9l0.2,0.8c0,0,0.5-0.6,0.6-0.6"/>
			</g>
		</g>
	</g>
	<g>
		<g>
			<path fill="none" stroke="#EA178E" stroke-width="1.2553" stroke-miterlimit="10" d="M169.2,129.8c-0.6,0-1.1,0-1.7-0.1
				c-0.6-0.1-1.1-0.2-1.6-0.3c-0.6-0.1-1.2-0.1-1.7-0.3c-0.5-0.2-0.9-0.7-1.4-1c-0.5-0.3-1-0.5-1.5-0.8c-0.4-0.4-0.8-0.8-1.2-1.2
				c-0.4-0.4-0.6-0.9-0.9-1.4c-0.3-0.5-0.9-0.8-1.1-1.3c-0.2-0.5-0.5-1-0.6-1.6c-0.2-0.5-0.3-1.1-0.4-1.7c-0.1-0.5-0.1-1.3-0.1-1.8
				c0.9-0.3,1,0.2,1.9,0.2c0.9,0,0.9-0.1,1.8-0.1c0.9,0,0.9,0.1,1.8,0.1s1-0.5,1.9-0.2c0,0.5,0.1,1.2,0.2,1.7
				c0.2,0.5,0.6,0.9,0.8,1.3c0.3,0.4,0.5,0.9,0.9,1.2c0.4,0.3,0.9,0.4,1.4,0.6c0.5,0.1,0.9,0.4,1.5,0.4c0.7,0,1.3-0.1,1.9-0.3
				c0.6-0.2,1.2-0.5,1.7-0.9c0.5-0.4,0.8-1,1.1-1.6c0.3-0.6,0.6-1.2,0.6-1.9c0-0.6-0.1-1.3-0.3-1.7c-0.2-0.6-0.6-1.1-0.9-1.5
				c-0.4-0.4-0.9-0.7-1.4-1c-0.5-0.3-1-0.5-1.5-0.8c-0.5-0.2-1-0.6-1.6-0.8c-0.5-0.2-1.2-0.2-1.7-0.4c-0.6-0.2-1.1-0.5-1.7-0.7
				c-0.6-0.2-1-0.7-1.6-1c-0.5-0.3-1-0.4-1.5-0.7c-0.5-0.3-0.9-0.6-1.3-1c-0.4-0.4-0.6-0.9-0.9-1.4c-0.3-0.4-0.6-0.9-0.8-1.4
				c-0.2-0.5-0.5-1-0.6-1.5c-0.1-0.5-0.5-1-0.5-1.6c-0.1-0.5,0.2-1.1,0.2-1.7c0-0.6,0-1.1,0.1-1.7c0.1-0.6,0.3-1.1,0.4-1.6
				c0.2-0.6,0.4-1,0.7-1.5c0.3-0.5,0.3-1.2,0.6-1.6c0.3-0.5,0.9-0.8,1.3-1.1c0.4-0.4,0.8-0.8,1.3-1.1c0.5-0.3,1-0.5,1.6-0.7
				c0.5-0.2,0.9-0.7,1.5-0.8c0.5-0.2,1.1-0.1,1.7-0.2c0.6-0.1,1.1-0.2,1.7-0.2c0.6,0,1.1,0.1,1.7,0.2c0.6,0.1,1.2,0,1.7,0.2
				c0.5,0.2,1.1,0.3,1.6,0.6c0.5,0.3,1,0.6,1.4,1c0.5,0.3,1,0.7,1.4,1c0.4,0.4,0.8,0.9,1.1,1.3c0.3,0.5,0.5,1,0.7,1.5
				c0.3,0.5,0.7,0.9,0.9,1.5c0.2,0.5,0.1,1.1,0.2,1.7c0.1,0.5,0.3,0.9,0.3,1.5c-0.8,0.3-0.8,0.1-1.7,0.1c-0.9,0-0.9,0-1.8,0
				c-0.9,0-0.9-0.1-1.8-0.1c-0.9,0-1,0.6-1.8,0.3c0-0.6-0.2-1.2-0.4-1.7c-0.2-0.6-0.5-0.9-0.9-1.3c-0.4-0.4-0.8-0.7-1.3-0.9
				c-0.5-0.2-1-0.3-1.6-0.3c-0.7,0-1.5-0.1-2,0.2c-0.6,0.3-0.9,1-1.3,1.6c-0.3,0.6-0.6,1.2-0.6,1.9c0,0.7,0.2,1.2,0.5,1.7
				c0.2,0.6,0.5,1,1,1.4c0.4,0.4,1,0.6,1.5,0.9c0.5,0.2,1.1,0.4,1.7,0.6c0.6,0.2,1.1,0.4,1.7,0.5c0.6,0.2,1.2,0.4,1.7,0.7
				c0.6,0.2,1.1,0.5,1.7,0.8c0.6,0.3,1.1,0.6,1.6,1c0.5,0.3,1,0.8,1.4,1.2c0.5,0.4,0.9,0.8,1.3,1.3c0.4,0.5,0.7,1,1,1.5
				c0.3,0.5,0.2,1.2,0.4,1.8c0.2,0.6,0.6,1.1,0.7,1.7c0.1,0.6,0.1,1.2,0.1,1.8c0,0.6,0,1.2-0.1,1.8c-0.1,0.6-0.2,1.2-0.4,1.7
				c-0.2,0.6-0.3,1.1-0.6,1.7c-0.2,0.5-0.5,1.1-0.8,1.6c-0.3,0.5-0.8,0.8-1.2,1.3c-0.4,0.4-0.8,0.8-1.3,1.1
				c-0.4,0.4-0.8,0.9-1.3,1.2c-0.5,0.3-1.1,0.4-1.6,0.6c-0.5,0.2-1,0.6-1.6,0.7c-0.6,0.1-1.1,0.1-1.7,0.1
				C170.4,129.7,169.8,129.8,169.2,129.8z"/>
			<path fill="none" stroke="#EA178E" stroke-width="1.2553" stroke-miterlimit="10" d="M185.9,129.1c-0.6-0.6,0-0.8,0-1.7
				c0-0.9,0-0.9,0-1.7c0-0.9-0.2-0.9-0.2-1.7c0-0.9,0.3-0.9,0.3-1.7c0-0.9-0.1-0.9-0.1-1.7c0-0.9,0.1-0.9,0.1-1.7
				c0-0.9,0.1-0.9,0.1-1.7c0-0.9-0.3-0.9-0.3-1.7c0-0.9,0-0.9,0-1.7c0-0.9,0-0.9,0-1.7c0-0.9,0-0.9,0-1.7c0-0.9,0.2-0.9,0.2-1.7
				c0-0.9-0.1-0.9-0.1-1.7c0-0.9,0.1-0.9,0.1-1.7c0-0.9-0.2-0.9-0.2-1.7c0-0.9,0.2-0.9,0.2-1.7c0-0.9-0.2-0.9-0.2-1.7
				c0-0.9,0.2-0.9,0.2-1.7c0-0.9-0.1-0.9-0.1-1.7c0-0.9,0.2-0.9,0.2-1.7c0-0.9,0-0.9,0-1.7s-0.6-1,0-1.7c0.6-0.6,0.8-0.1,1.6-0.1
				c0.8,0,0.8,0.2,1.7,0.2c0.8,0,0.8,0,1.7,0c0.8,0,0.8-0.1,1.7-0.1c0.8,0,0.8-0.2,1.7-0.2c0.8,0,0.8,0,1.7,0c0.8,0,0.8,0.1,1.7,0.1
				c0.8,0,0.8-0.2,1.7-0.2c0.8,0,0.8,0,1.7,0c0.8,0,0.8,0.3,1.7,0.3c0.8,0,0.8-0.1,1.7-0.1c0.8,0,1.1-0.6,1.7-0.1
				c0.6,0.6-0.2,0.8-0.2,1.6c0,0.8,0,0.8,0,1.6c0,0.8,0.1,0.8,0.1,1.6c0,0.8,0.8,1.2,0.2,1.7c-0.6,0.6-0.9-0.2-1.8-0.2
				c-0.8,0-0.8,0-1.6,0c-0.8,0-0.8,0-1.7,0c-0.8,0-0.8,0-1.7,0c-0.8,0-0.8,0.3-1.7,0.3c-0.8,0-0.8-0.2-1.7-0.2c-0.8,0-0.8,0-1.7,0
				s-1.2-0.7-1.8-0.1c-0.6,0.7,0.2,1,0.2,1.9c0,0.9-0.2,0.9-0.2,1.8c0,0.9,0.1,0.9,0.1,1.8c0,0.9-0.1,0.9-0.1,1.8s-0.5,1.1,0.1,1.8
				c0.6,0.6,0.8-0.1,1.7-0.1c0.9,0,0.9,0.1,1.8,0.1c0.9,0,0.9-0.1,1.8-0.1c0.9,0,0.9,0,1.8,0c0.9,0,0.9,0.2,1.8,0.2
				c0.9,0,0.9-0.2,1.8-0.2s1-0.4,1.7,0.2c0.6,0.5-0.1,0.7-0.1,1.5c0,0.8,0.1,0.8,0.1,1.6c0,0.8,0,0.8,0,1.6c0,0.8,0.6,1,0,1.5
				c-0.7,0.6-0.8,0.2-1.7,0.2c-0.9,0-0.9,0-1.8,0c-0.9,0-0.9,0.1-1.8,0.1c-0.9,0-0.9,0-1.8,0c-0.9,0-0.9,0-1.8,0
				c-0.9,0-0.9-0.3-1.8-0.3c-0.9,0-1.1-0.4-1.8,0.2c-0.6,0.6,0,0.8,0,1.7c0,0.9,0.1,0.9,0.1,1.8c0,0.9-0.1,0.9-0.1,1.8
				c0,0.9,0.1,0.9,0.1,1.8c0,0.9-0.6,1,0,1.7c0.6,0.6,0.7-0.1,1.5-0.1c0.8,0,0.8,0,1.6,0c0.8,0,0.8,0,1.7,0c0.8,0,0.8,0.1,1.7,0.1
				c0.8,0,0.8,0.1,1.7,0.1c0.8,0,0.8-0.1,1.7-0.1c0.8,0,0.8,0,1.7,0s0.9-0.4,1.5,0.2c0.6,0.6,0.3,0.7,0.3,1.5c0,0.8,0,0.8,0,1.6
				c0,0.8,0,0.8,0,1.6c0,0.8,0.5,1.1-0.1,1.7c-0.6,0.6-0.9,0-1.8,0c-0.8,0-0.8,0-1.7,0c-0.8,0-0.8-0.2-1.7-0.2
				c-0.8,0-0.8-0.1-1.7-0.1c-0.8,0-0.8,0.2-1.7,0.2c-0.8,0-0.8-0.2-1.7-0.2c-0.8,0-0.8,0.2-1.7,0.2c-0.8,0-0.8-0.2-1.7-0.2
				c-0.8,0-0.8,0.3-1.7,0.3c-0.8,0-0.8,0-1.7,0c-0.8,0-0.9-0.4-1.7-0.2C186.6,129.2,186.5,129.7,185.9,129.1z"/>
			<path fill="none" stroke="#EA178E" stroke-width="1.2553" stroke-miterlimit="10" d="M235.4,129.1c-0.8-0.4-0.4-0.7-0.9-1.5
				c-0.4-0.8-0.4-0.8-0.8-1.5c-0.4-0.8-0.6-0.6-1.1-1.4c-0.4-0.8-0.2-0.9-0.6-1.7c-0.4-0.8-0.6-0.7-1-1.4c-0.4-0.8-0.4-0.8-0.8-1.5
				c-0.4-0.8-0.3-0.8-0.7-1.6c-0.4-0.8-0.7-0.6-1.1-1.4c-0.4-0.8-0.4-0.8-0.9-1.5c-0.4-0.8-0.4-0.8-0.8-1.5
				c-0.4-0.8-0.5-0.7-0.9-1.5c-0.4-0.8-0.3-0.9-0.7-1.6c-0.4-0.8-0.5-0.7-1-1.5c-0.4-0.8-0.3-0.8-0.8-1.6c-0.4-0.8-0.6-0.6-1.1-1.4
				c-0.4-0.8-0.3-0.9-0.7-1.6c-0.4-0.8-0.6-0.7-1-1.4s-0.3-0.9-0.7-1.6c0,0,0-0.1,0,0c-0.1,0.8-0.2,0.8-0.2,1.7c0,0.9,0,0.9,0,1.7
				c0,0.9-0.1,0.9-0.1,1.7c0,0.9,0.1,0.9,0.1,1.7c0,0.9-0.2,0.9-0.2,1.7c0,0.9,0,0.9,0,1.7c0,0.9,0.1,0.9,0.1,1.7
				c0,0.8,0.2,0.8,0.2,1.7c0,0.9,0,0.9,0,1.7c0,0.9-0.1,0.9-0.1,1.7c0,0.9,0.2,0.9,0.2,1.7c0,0.9,0,0.9,0,1.7c0,0.9-0.3,0.9-0.3,1.7
				c0,0.9,0.1,0.9,0.1,1.7c0,0.9,0.1,0.9,0.1,1.7c0,0.9,0.5,1-0.2,1.6c-0.6,0.6-0.8-0.1-1.6-0.1c-0.9,0-0.9,0.1-1.7,0.1
				c-0.9,0-0.9,0.2-1.7,0.2s-1,0.4-1.6-0.2c-0.6-0.6,0-0.8,0-1.6c0-0.9,0-0.9,0-1.7c0-0.9,0-0.9,0-1.7c0-0.9-0.3-0.9-0.3-1.7
				c0-0.9,0.2-0.9,0.2-1.7c0-0.9,0-0.9,0-1.7c0-0.9,0.2-0.9,0.2-1.7c0-0.9-0.2-0.9-0.2-1.7c0-0.9,0.2-0.9,0.2-1.7
				c0-0.9-0.1-0.9-0.1-1.7c0-0.9,0.1-0.9,0.1-1.7c0-0.9-0.2-0.9-0.2-1.7c0-0.9,0-0.9,0-1.7c0-0.9,0.1-0.9,0.1-1.7
				c0-0.9-0.1-0.9-0.1-1.7c0-0.9,0-0.9,0-1.7c0-0.9,0.2-0.9,0.2-1.7c0-0.9-0.2-0.9-0.2-1.7c0-0.9,0.3-0.9,0.3-1.7c0-0.9,0-0.9,0-1.7
				c0-0.9-0.1-0.9-0.1-1.7s-0.6-1,0-1.7c0.5-0.6,0.7,0.1,1.5,0.1c0.8,0,0.8-0.3,1.6-0.3c0.8,0,0.8,0,1.6,0c0.8,0,0.8-0.1,1.6-0.1
				s1-0.4,1.7,0.1c0.7,0.5,0.5,0.8,0.9,1.6c0.4,0.8,0.2,0.9,0.6,1.7c0.4,0.8,0.6,0.6,1.1,1.4c0.4,0.8,0.4,0.8,0.8,1.5
				c0.4,0.8,0.5,0.7,1,1.4c0.4,0.8,0.4,0.8,0.8,1.5c0.4,0.8,0.5,0.7,0.9,1.5c0.4,0.8,0.5,0.7,0.9,1.5c0.4,0.8,0.4,0.8,0.9,1.5
				c0.4,0.8,0.4,0.8,0.8,1.5c0.4,0.8,0.4,0.8,0.8,1.5c0.4,0.8,0.4,0.8,0.8,1.5c0.4,0.8,0.4,0.8,0.8,1.5c0.4,0.8,0.5,0.7,0.9,1.5
				c0.4,0.8,0.5,0.7,0.9,1.5c0.4,0.8,0.2,0.9,0.6,1.7c0.4,0.8,0.7,0.6,1.1,1.4c0.4,0.8,0.4,0.8,0.9,1.5c0,0-0.2,0.1-0.2,0.1
				c0.1-0.8,0-0.8,0-1.7c0-0.9,0-0.9,0-1.7c0-0.9,0-0.9,0-1.7c0-0.9,0.2-0.9,0.2-1.7c0-0.9,0.1-0.9,0.1-1.7c0-0.9-0.2-0.9-0.2-1.7
				c0-0.9,0.2-0.9,0.2-1.7c0-0.8-0.2-0.8-0.2-1.7c0-0.9,0.2-0.9,0.2-1.7c0-0.9-0.3-0.9-0.3-1.7c0-0.9,0-0.9,0-1.7
				c0-0.9,0.2-0.9,0.2-1.7c0-0.9,0-0.9,0-1.7c0-0.9-0.1-0.9-0.1-1.7c0-0.9,0.1-0.9,0.1-1.7s-0.7-1-0.1-1.6c0.6-0.6,0.8,0,1.6,0
				c0.9,0,0.9-0.1,1.7-0.1c0.9,0,0.9,0,1.7,0s1.2-0.7,1.9-0.1c0.6,0.6-0.3,1-0.3,1.8c0,0.9,0,0.9,0,1.7c0,0.9,0.3,0.9,0.3,1.7
				c0,0.9,0,0.9,0,1.7c0,0.9-0.2,0.9-0.2,1.7c0,0.9,0.2,0.9,0.2,1.7c0,0.9-0.2,0.9-0.2,1.7c0,0.9,0,0.9,0,1.7c0,0.9,0.1,0.9,0.1,1.7
				c0,0.9,0.1,0.9,0.1,1.7c0,0.9,0,0.9,0,1.7c0,0.9-0.3,0.9-0.3,1.7c0,0.9,0.2,0.9,0.2,1.7c0,0.9-0.1,0.9-0.1,1.7
				c0,0.9,0.1,0.9,0.1,1.7c0,0.9,0,0.9,0,1.7c0,0.9-0.1,0.9-0.1,1.7c0,0.9,0.1,0.9,0.1,1.7c0,0.9-0.1,0.9-0.1,1.7
				c0,0.9,0.1,0.9,0.1,1.7c0,0.9-0.3,0.9-0.3,1.7s0.8,1.2,0.2,1.7c-0.7,0.6-1,0.2-2,0.2c-1,0-1-0.2-1.9-0.2c-1,0-1-0.1-1.9,0.1
				C236.3,129.4,236.2,129.5,235.4,129.1z"/>
			<path fill="none" stroke="#EA178E" stroke-width="1.2553" stroke-miterlimit="10" d="M259.4,129.8c-0.6,0-1.1,0-1.7-0.1
				c-0.6-0.1-1.1-0.2-1.6-0.3c-0.6-0.1-1.2-0.1-1.7-0.3c-0.5-0.2-0.9-0.7-1.4-1c-0.5-0.3-1-0.5-1.5-0.8c-0.4-0.4-0.8-0.8-1.2-1.2
				c-0.4-0.4-0.6-0.9-0.9-1.4c-0.3-0.5-0.9-0.8-1.1-1.3c-0.2-0.5-0.5-1-0.6-1.6c-0.2-0.5-0.3-1.1-0.4-1.7c-0.1-0.5-0.1-1.3-0.1-1.8
				c0.9-0.3,1,0.2,1.9,0.2c0.9,0,0.9-0.1,1.8-0.1c0.9,0,0.9,0.1,1.8,0.1s1-0.5,1.9-0.2c0,0.5,0.1,1.2,0.2,1.7
				c0.2,0.5,0.6,0.9,0.8,1.3c0.3,0.4,0.5,0.9,0.9,1.2c0.4,0.3,0.9,0.4,1.4,0.6c0.5,0.1,0.9,0.4,1.5,0.4c0.7,0,1.3-0.1,1.9-0.3
				c0.6-0.2,1.2-0.5,1.7-0.9c0.5-0.4,0.8-1,1.1-1.6c0.3-0.6,0.6-1.2,0.6-1.9c0-0.6-0.1-1.3-0.3-1.7c-0.2-0.6-0.6-1.1-0.9-1.5
				c-0.4-0.4-0.9-0.7-1.4-1c-0.5-0.3-1-0.5-1.5-0.8c-0.5-0.2-1-0.6-1.6-0.8c-0.5-0.2-1.2-0.2-1.7-0.4c-0.6-0.2-1.1-0.5-1.7-0.7
				c-0.6-0.2-1-0.7-1.6-1c-0.5-0.3-1-0.4-1.5-0.7c-0.5-0.3-0.9-0.6-1.3-1c-0.4-0.4-0.6-0.9-0.9-1.4c-0.3-0.4-0.6-0.9-0.8-1.4
				c-0.2-0.5-0.5-1-0.6-1.5c-0.1-0.5-0.5-1-0.5-1.6c-0.1-0.5,0.2-1.1,0.2-1.7c0-0.6,0-1.1,0.1-1.7c0.1-0.6,0.3-1.1,0.4-1.6
				c0.2-0.6,0.4-1,0.7-1.5c0.3-0.5,0.3-1.2,0.6-1.6c0.3-0.5,0.9-0.8,1.3-1.1c0.4-0.4,0.8-0.8,1.3-1.1c0.5-0.3,1-0.5,1.6-0.7
				c0.5-0.2,0.9-0.7,1.5-0.8c0.5-0.2,1.1-0.1,1.7-0.2c0.6-0.1,1.1-0.2,1.7-0.2c0.6,0,1.1,0.1,1.7,0.2c0.6,0.1,1.2,0,1.7,0.2
				c0.5,0.2,1.1,0.3,1.6,0.6c0.5,0.3,1,0.6,1.4,1c0.5,0.3,1,0.7,1.4,1c0.4,0.4,0.8,0.9,1.1,1.3c0.3,0.5,0.5,1,0.7,1.5
				c0.3,0.5,0.7,0.9,0.9,1.5c0.2,0.5,0.1,1.1,0.2,1.7c0.1,0.5,0.3,0.9,0.3,1.5c-0.8,0.3-0.8,0.1-1.7,0.1c-0.9,0-0.9,0-1.8,0
				c-0.9,0-0.9-0.1-1.8-0.1c-0.9,0-1,0.6-1.8,0.3c0-0.6-0.2-1.2-0.4-1.7c-0.2-0.6-0.5-0.9-0.9-1.3c-0.4-0.4-0.8-0.7-1.3-0.9
				c-0.5-0.2-1-0.3-1.6-0.3c-0.7,0-1.5-0.1-2,0.2c-0.6,0.3-0.9,1-1.3,1.6c-0.3,0.6-0.6,1.2-0.6,1.9c0,0.7,0.2,1.2,0.5,1.7
				c0.2,0.6,0.5,1,1,1.4c0.4,0.4,1,0.6,1.5,0.9c0.5,0.2,1.1,0.4,1.7,0.6c0.6,0.2,1.1,0.4,1.7,0.5c0.6,0.2,1.2,0.4,1.7,0.7
				c0.6,0.2,1.1,0.5,1.7,0.8c0.6,0.3,1.1,0.6,1.6,1c0.5,0.3,1,0.8,1.4,1.2c0.5,0.4,0.9,0.8,1.3,1.3c0.4,0.5,0.7,1,1,1.5
				c0.3,0.5,0.2,1.2,0.4,1.8c0.2,0.6,0.6,1.1,0.7,1.7c0.1,0.6,0.1,1.2,0.1,1.8c0,0.6,0,1.2-0.1,1.8c-0.1,0.6-0.2,1.2-0.4,1.7
				c-0.2,0.6-0.3,1.1-0.6,1.7c-0.2,0.5-0.5,1.1-0.8,1.6c-0.3,0.5-0.8,0.8-1.2,1.3c-0.4,0.4-0.8,0.8-1.3,1.1
				c-0.4,0.4-0.8,0.9-1.3,1.2c-0.5,0.3-1.1,0.4-1.6,0.6c-0.5,0.2-1,0.6-1.6,0.7c-0.6,0.1-1.1,0.1-1.7,0.1
				C260.6,129.7,260,129.8,259.4,129.8z"/>
			<path fill="none" stroke="#EA178E" stroke-width="1.2553" stroke-miterlimit="10" d="M276.1,129.1c-0.6-0.6,0-0.8,0-1.7
				c0-0.9,0-0.9,0-1.7c0-0.9-0.2-0.9-0.2-1.7c0-0.9,0.3-0.9,0.3-1.7c0-0.9-0.1-0.9-0.1-1.7c0-0.9,0.1-0.9,0.1-1.7
				c0-0.9,0.1-0.9,0.1-1.7c0-0.9-0.3-0.9-0.3-1.7c0-0.9,0-0.9,0-1.7c0-0.9,0-0.9,0-1.7c0-0.9,0-0.9,0-1.7c0-0.9,0.2-0.9,0.2-1.7
				c0-0.9-0.1-0.9-0.1-1.7c0-0.9,0.1-0.9,0.1-1.7c0-0.9-0.2-0.9-0.2-1.7c0-0.9,0.2-0.9,0.2-1.7c0-0.9-0.2-0.9-0.2-1.7
				c0-0.9,0.2-0.9,0.2-1.7c0-0.9-0.1-0.9-0.1-1.7c0-0.9,0.2-0.9,0.2-1.7c0-0.9,0-0.9,0-1.7s-0.6-1,0-1.7c0.6-0.6,0.8-0.1,1.6-0.1
				c0.8,0,0.8,0.2,1.7,0.2c0.8,0,0.8,0,1.7,0c0.8,0,0.8-0.1,1.7-0.1c0.8,0,0.8-0.2,1.7-0.2c0.8,0,0.8,0,1.7,0c0.8,0,0.8,0.1,1.7,0.1
				c0.8,0,0.8-0.2,1.7-0.2c0.8,0,0.8,0,1.7,0c0.8,0,0.8,0.3,1.7,0.3c0.8,0,0.8-0.1,1.7-0.1c0.8,0,1.1-0.6,1.7-0.1
				c0.6,0.6-0.2,0.8-0.2,1.6c0,0.8,0,0.8,0,1.6c0,0.8,0.1,0.8,0.1,1.6c0,0.8,0.8,1.2,0.2,1.7c-0.6,0.6-0.9-0.2-1.8-0.2
				c-0.8,0-0.8,0-1.6,0c-0.8,0-0.8,0-1.7,0c-0.8,0-0.8,0-1.7,0c-0.8,0-0.8,0.3-1.7,0.3c-0.8,0-0.8-0.2-1.7-0.2c-0.8,0-0.8,0-1.7,0
				s-1.2-0.7-1.8-0.1c-0.6,0.7,0.2,1,0.2,1.9c0,0.9-0.2,0.9-0.2,1.8c0,0.9,0.1,0.9,0.1,1.8c0,0.9-0.1,0.9-0.1,1.8s-0.5,1.1,0.1,1.8
				c0.6,0.6,0.8-0.1,1.7-0.1c0.9,0,0.9,0.1,1.8,0.1c0.9,0,0.9-0.1,1.8-0.1c0.9,0,0.9,0,1.8,0c0.9,0,0.9,0.2,1.8,0.2
				c0.9,0,0.9-0.2,1.8-0.2c0.9,0,1-0.4,1.7,0.2c0.6,0.5-0.1,0.7-0.1,1.5c0,0.8,0.1,0.8,0.1,1.6c0,0.8,0,0.8,0,1.6c0,0.8,0.6,1,0,1.5
				c-0.7,0.6-0.8,0.2-1.7,0.2c-0.9,0-0.9,0-1.8,0c-0.9,0-0.9,0.1-1.8,0.1c-0.9,0-0.9,0-1.8,0c-0.9,0-0.9,0-1.8,0
				c-0.9,0-0.9-0.3-1.8-0.3c-0.9,0-1.1-0.4-1.8,0.2c-0.6,0.6,0,0.8,0,1.7c0,0.9,0.1,0.9,0.1,1.8c0,0.9-0.1,0.9-0.1,1.8
				c0,0.9,0.1,0.9,0.1,1.8c0,0.9-0.6,1,0,1.7c0.6,0.6,0.7-0.1,1.5-0.1c0.8,0,0.8,0,1.6,0c0.8,0,0.8,0,1.7,0c0.8,0,0.8,0.1,1.7,0.1
				c0.8,0,0.8,0.1,1.7,0.1c0.8,0,0.8-0.1,1.7-0.1c0.8,0,0.8,0,1.7,0s0.9-0.4,1.5,0.2c0.6,0.6,0.3,0.7,0.3,1.5c0,0.8,0,0.8,0,1.6
				c0,0.8,0,0.8,0,1.6c0,0.8,0.5,1.1-0.1,1.7c-0.6,0.6-0.9,0-1.8,0c-0.8,0-0.8,0-1.7,0c-0.8,0-0.8-0.2-1.7-0.2
				c-0.8,0-0.8-0.1-1.7-0.1c-0.8,0-0.8,0.2-1.7,0.2c-0.8,0-0.8-0.2-1.7-0.2c-0.8,0-0.8,0.2-1.7,0.2c-0.8,0-0.8-0.2-1.7-0.2
				c-0.8,0-0.8,0.3-1.7,0.3c-0.8,0-0.8,0-1.7,0c-0.8,0-0.9-0.4-1.7-0.2C276.9,129.2,276.7,129.7,276.1,129.1z"/>
		</g>
	</g>
	<g>
		<path fill="none" stroke="#404040" stroke-width="1.2553" stroke-miterlimit="10" d="M107.4,127.4"/>
	</g>
	<g>
		<g>
			<path fill="none" stroke="#262626" stroke-width="1.2553" stroke-linecap="round" stroke-linejoin="round" d="M1.2,66.3
				c0.2,0.3,1.5-0.8,1.6-0.7C2.9,65.7,4,66.8,4,66.8l0.5-0.2c0,0,0.2,2.1,0.3,2.2c0.5,1,3.1-1.9,3.3-1.5l-3,1.4c0,0,6.5-3.3,6.6-3.1
				c0.2,0.5-6,3.4-6,3.4l4.2-2c0.2,0.5-4.9,2.8-4.6,3.3c0.4,0.8,10.3-4.8,10.3-4.8S5.9,71.8,6,72c0.4,0.9,12.8-8.1,13.6-6.3
				C19.7,65.9,5.7,74,5.7,74c0.8,1.8,17.3-8.1,17.3-8.1c0.7,1.6-14.8,8.6-14.6,9l17.4-8.1c0.7,1.5-18.3,11.3-18.3,11.3
				C7.7,78.5,31.6,65,32.3,66.6C32.5,67,9.6,78.2,9.6,78.2c0.7,1.4,26.8-12.5,26.8-12.5L11.9,78l23.8-11.1c0.4,0.9-25,12.5-25,12.5
				c0.5,1.2,28.5-13.3,28.5-13.3C39.6,67,9.6,80.8,9.6,80.8L41.3,66c1.2,2.6-31.6,15.8-31.1,16.8c0.5,1,30.4-14.2,30.4-14.2
				c0.8,1.8-27.7,14-27.7,14l29.6-13.8c0.9,1.9-26.9,14.5-26.7,14.9c1.6,3.5,24.3-11.3,24.3-11.3c0.1,0.3-24,13.4-24,13.4
				c1.5,3.3,23.9-12.4,24.4-11.4c0,0-24.8,10.1-24,11.7l24.6-11.5c0.8,1.8-28,13.1-28,13.1c1.4,2.9,30.3-15.2,30.7-14.3
				c0.8,1.8-28.5,11.8-27.4,14.2l27.6-12.9C44.9,77.4,18,89.2,18,89.2c0.6,1.2,27.2-12.9,27.3-12.7c1,2.1-26.4,12.6-26.4,12.6
				l25-11.6L19.7,90.2c0.6,1.2,24.5-12.9,25.1-11.7c0.4,0.8-27.6,14-27.6,14c1.6,3.5,27.1-12.6,27.1-12.6c0,0.1-26.9,13.2-26.9,13.2
				L45,80.2L20.8,93.9l28.3-13.2c0,0-32,14.4-31.6,15.2l30.3-14.1c0.1,0.1-25.8,14.8-25.8,14.8s24.9-15,26.2-12.2
				c0,0-28.9,11.7-27.9,13.9l29-13.5c0.4,0.9-25.8,13.2-25.8,13.2C24.9,100.6,51,85.2,51,85.2c1.2,2.7-29.3,14-29.3,14
				c0.7,1.4,28.6-13.3,28.6-13.3s-29.2,14.4-29.1,14.7c0,0,26.9-15.1,27.9-13c0,0-26.3,12.2-26.2,12.6c1.5,3.2,26.1-12.2,26.1-12.2
				l-23.4,13.5c0,0,24.9-15.3,26.3-12.3l-28.9,16.1c0.3,0.6,28.7-13.4,28.7-13.4c1,2.2-28.3,13.9-28.3,13.9l27.8-12.9
				C51.3,93,25.9,104,27,106.4l27.6-12.9c0.1,0.1-29.6,15-29.6,15c1.5,3.2,29.9-16.7,31-14.4c1.2,2.5-32,11.2-30.6,14.3
				c0.1,0.1,27-12.6,27-12.6l-26.8,13.8c0,0,26.5-15.5,27.7-12.9c0,0-25.9,13.2-25.7,13.7c1.2,2.7,26.9-12.9,27.1-12.6
				c0,0-25.2,12-24.6,13.2l27.3-12.7c0.3,0.6-26.3,12.7-26.3,12.7c0.9,2,26.3-16,27.7-12.9l-27.6,15.1l26.8-12.5l-29.6,15.2
				c0.1,0.3,28.6-16.5,29.8-13.9l-26.1,12.6c1.1,2.4,25.9-12.1,25.9-12.1c0.4,0.9-29.4,12.1-28.2,14.8c0,0,27.5-16.4,28.9-13.5
				c0.6,1.3-25.4,14.2-25.4,14.2c0.4,0.9,30.7-18.8,32.4-15.1c0,0-35,15-34.3,16.5c0.6,1.3,31.3-18.8,32.9-15.4l-31.9,17.6
				c1.9,4,38.5-17.9,38.5-17.9s-36.6,14.8-35.3,17.7c2.1,4.6,38.9-18.1,38.9-18.1c1.7,3.7-39.5,19.5-39.5,19.5s39.8-20.5,40.5-18.9
				c0.3,0.7-40.4,18.9-40.4,18.9s40.6-19.7,40.9-19.1l-39.6,20.3c0,0,41.1-21.1,41.8-19.5c1.6,3.4-37.7,20.3-37.7,20.3
				c1,2.1,44-20.5,44-20.5c0.8,1.8-45.5,20.2-44.7,22.1L90,103c0.1,0.2-48.9,23.3-48.8,23.6c0.8,1.6,48.3-25.1,49.3-23
				c1.8,3.9-48.9,18.8-47,22.8l46.8-21.8C91,106,47.8,127,47.8,127c2.3,5,46-21.8,46.1-21.5c0,0-46.2,18.3-44.7,21.5
				c0,0,43-21.7,43.6-20.3c1.7,3.6-44.2,22-44.2,22l42.3-19.7l-38.1,19c0.1,0.2,40.8-19,40.8-19l-39.6,19.5c0,0,37.4-22.6,39.4-18.4
				c0.5,1.1-32.8,17.3-32.8,17.3s33.8-19.5,35.2-16.4c1.2,2.5-32.5,17-32.2,17.6l33.9-15.8c0,0-27,14.7-26.8,15.2l24.7-11.5
				c0,0-24.5,9.3-23.6,11.1c0.6,1.2,23.6-11.8,23.9-11.1c0.5,1.2-17.7,10.8-17.7,10.8s21.6-11.4,22.1-10.3l-21.5,11.5l19-8.9
				c0,0-15.9,7.4-15.5,8.4c1,2.2,18.5-8.6,18.5-8.6c0.7,1.5-15.3,8-14.7,9.3l14.3-6.7c0.4,0.9-10.3,5.9-10.3,5.9
				c0.2,0.4,12.7-7.3,13.2-6.2L89.2,128c0.4,0.9,14.2-6.6,14.2-6.6l-9.4,6c0,0,6-4.1,6.5-3l-4.8,4.1c0.5,1,7.2-3.9,7.4-3.5
				c0.1,0.2-1.6,2.1-1.5,2.2l2.3-1.1l-1.4,1.2c0.3,0.7,2.4-1.1,2.4-1.1c0.1,0.1-1.1,1.6-1.1,1.7c0,0.1,1.1-0.5,1.1-0.5"/>
		</g>
	</g>
	<g>
		<g>
			<path fill="none" stroke="#262626" stroke-width="0.6277" stroke-linecap="round" stroke-linejoin="round" d="M100.6,105.7
				l-1.9,1.2c0,0,2.5-3.1,2.5-3.1c-0.3-0.4-3.7,2.9-3.9,2.5l1.3-2.3c0,0-1.7,1.5-1.8,1.2c0,0-0.5-1.1-0.5-1.2c-0.1-0.1,0,0,0,0"/>
			<path fill="none" stroke="#262626" stroke-width="0.6277" stroke-linecap="round" stroke-linejoin="round" d="M110.4,124.2
				c-0.3-0.5-2.7,1.8-2.7,1.8l3.5-3.8c-0.3-0.4-3.4,2.2-3.4,2.2c-0.1-0.2,3.6-3.8,3.6-3.8c-0.1-0.2-3,1.9-3,1.9
				c-0.2-0.3,4.9-4.1,4.6-4.5l-4,2.6c-0.1-0.1,4.5-4.4,4.5-4.4l-6,3.9l9-7.3c0,0-8.2,6.5-8.7,5.7l9.2-7.5
				c-0.6-0.9-12.2,7.9-12.2,7.9c-0.6-0.9,12.9-9.9,12.9-9.9l-11.7,7.6l12.3-9.5c-1.2-1.9-12.5,8.1-12.5,8.1s14.9-10.7,14.7-11.1
				c0,0-16.5,11.7-16.9,11c0,0,20.9-14.9,20.8-15c0,0-18,14.4-19.2,12.5c-0.6-0.9,17.2-12.3,17-12.5c-1.5-2.3-17.3,11.3-17.3,11.3
				c-0.6-0.9,23-15.1,22.4-16c-0.4-0.6-23.7,15.6-23.8,15.5c-0.9-1.4,25.8-14.9,24.3-17.3l-26.5,17.2c-0.1-0.1,24.7-17.5,24.7-17.5
				S100,109.9,100,109.9l30.5-21.3c-0.2-0.3-30.6,19.8-30.6,19.8s32.6-19.1,31-21.6l-30,19.5l30.7-21.5l-21.7,14.1
				c0,0,24-14.3,22.7-16.2c-1.6-2.5-17.8,11.8-17.9,11.6l21.4-15.4c-1.6-2.5-21,13.6-21,13.6c-0.2-0.3,24.2-14.2,22.8-16.3
				l-19.5,12.6L139.2,74c0,0-21.8,16.9-23,15l20.4-14.7c-0.2-0.3-15.5,10.1-15.5,10.1c-0.7-1.2,15.8-11.7,15.8-11.7
				s-15.6,12-16.5,10.7c-1.1-1.7,19.8-12.9,19.2-13.9c-0.5-0.7-17.6,11.5-17.6,11.5L137,69.4l-15.1,9.8l19-13.8
				c-0.5-0.8-15.5,10.1-15.5,10.1c-0.9-1.5,15.4-9.6,14.6-10.9c-0.7-1.1-13.9,9.9-14.3,9.3c-0.4-0.7,13.6-10.3,13.6-10.3
				s-10.1,7-10.3,6.7c-0.3-0.4,8.1-6.1,7.8-6.6c-0.2-0.3-7.8,7.5-8.9,5.8l9.7-7.8c0,0-6.6,4.7-6.8,4.4c0,0,7.4-5.4,7-6
				c0,0-8.5,6.1-8.8,5.7c-0.3-0.5,7-6,7-6s-7.3,4.9-7.4,4.8c0,0,10.1-7,9.7-7.8l-7.7,5l5.5-5.1c-0.6-1-5.5,3.6-5.5,3.6l3.2-3.6
				c-0.6-1-2.7,1.8-2.7,1.8c-0.3-0.5,3.9-3.9,3.8-4c0,0-5.1,4.8-5.8,3.7c0,0,4.6-4,4.3-4.3c-0.7-1-4.7,3-4.7,3
				c-0.3-0.4,5.2-4.9,5.2-4.9c-0.1-0.1-6,3.9-6,3.9c-0.3-0.4,4.2-4.2,4.2-4.2l-6.4,4.1c-0.4-0.6,5.1-4.6,5-4.7
				c-0.6-0.9-5,4.5-5.6,3.6c-0.3-0.5,4.4-3.8,4.2-4.2c-0.3-0.4-1.8,1.2-1.8,1.2s4-3.5,3.7-3.9c0,0-5.3,4.8-5.9,3.8l3.7-3.9
				c-0.8-1.2-5,5-5.8,3.8l4.5-4.4c-0.2-0.2-3,1.9-3,1.9c-0.2-0.3,4.7-4,4.5-4.4c-0.1-0.1-5.8,4.2-6,3.9l6-5.4l-8.6,5.6l5.3-4.9
				c-0.4-0.6-4.1,2.7-4.1,2.7s5.1-4.7,5.1-4.8c-0.6-0.9-6.5,5.3-7,4.5c0,0,7.6-6.4,7.6-6.4c-0.7-1-5.1,4.4-5.6,3.6l3.7-3.9l-3.8,2.4
				c-0.2-0.3,5.6-4.5,5.3-4.9c0,0-6.8,5.7-7.4,4.8l6.8-5.9c-0.1-0.2-9.5,6.1-9.5,6.1c-0.1-0.1,6.1-5.5,6.1-5.5
				c-0.8-1.2-6.2,5.2-6.7,4.4c0,0,6.3-5.3,6.2-5.5c0,0-6.7,5.3-7.1,4.6c-0.6-0.9,8.6-7.1,8.6-7.1s-5.5,4.5-5.9,3.8l2.2-2.9
				c-0.3-0.5-3.3,2.1-3.3,2.1s4.7-4,4.4-4.4c-0.8-1.2-5.8,3.9-5.8,3.8c-0.3-0.5,4.7-4.4,4.6-4.5c0-0.1-5.5,3.5-5.5,3.5l3.8-4
				c0,0-5.2,4.8-5.8,3.8l6.5-5.7c0,0-6.6,5.4-7.1,4.6l5-4.7c-0.8-1.2-1.7,2.5-2.4,1.5c-0.2-0.4,4.7-3.9,4.4-4.4
				c-0.1-0.2-6.4,4.2-6.4,4.2c-0.4-0.6,5.3-4.9,5.3-4.9s-4.8,3.2-4.9,3.2c0,0,3-3.4,2.9-3.4c0,0-6.6,5.6-7.2,4.7
				c-0.1-0.2,6.4-4.9,6-5.4c-0.7-1.1-7.2,4.7-7.2,4.7c-0.3-0.4,6.6-5.8,6.6-5.8l-5.8,3.7c-0.3-0.4,4.9-4.5,4.8-4.6
				c0,0-7.4,6.2-8,5.2c0,0,10.7-8.3,10.6-8.4L105,25.9c0,0,10.3-7.6,10-8c0,0-12.5,8.1-12.5,8.1s11-8.5,10.9-8.6
				c-0.1-0.2-13.2,10.9-14.3,9.3c-0.2-0.3,14.2-10.3,14-10.6c0,0-15.7,10.5-15.9,10.3c-0.8-1.2,13.2-10.1,13.2-10.1L100.2,23
				l12.5-9.6C112,12.3,101,21,101,21c-0.4-0.6,10.3-6.8,9.6-7.8c-0.5-0.8-9.5,6.2-9.5,6.2c-0.3-0.5,10.8-7.6,10.4-8.3l-11.3,7.3
				c-0.1-0.1,10.2-7.7,10-8c-0.6-1-6.3,4.9-6.7,4.3c-0.3-0.4,3.3-3.7,3.3-3.7l-2.4,1.6c0,0,1.5-2.4,1.5-2.5l-1.8,1.2l3.3-3.6
				c-0.2-0.2-2.8,1.8-2.8,1.8s3.6-3.8,3.5-3.8c-0.2-0.3-2.5,1.9-2.6,1.7c0,0,1.6-2.4,1.5-2.5l-0.4,0.2"/>
		</g>
	</g>
</g>
<g id="Layer_2">
</g>
<g id="Layer_3">
	<g id="Layer_4">
	</g>
</g>
<g id="Layer_5">
</g>
</svg>
