<?xml version="1.0" encoding="utf-8"?>
<!-- Generator: Adobe Illustrator 18.0.0, SVG Export Plug-In . SVG Version: 6.00 Build 0)  -->
<!DOCTYPE svg PUBLIC "-//W3C//DTD SVG 1.1//EN" "http://www.w3.org/Graphics/SVG/1.1/DTD/svg11.dtd">
<svg version="1.1" xmlns="http://www.w3.org/2000/svg" xmlns:xlink="http://www.w3.org/1999/xlink" x="0px" y="0px"
	 viewBox="0 0 381.5 131.3" enable-background="new 0 0 381.5 131.3" xml:space="preserve">
<g id="Layer_1">
</g>
<g id="Layer_2">
</g>
<g id="Layer_3">
	<g id="Layer_4">
	</g>
	<path fill="#262626" d="M194,75c-4,7.3-11.2,10.4-17.2,10.4c-10.4,0-19.5-8.2-19.5-19.3c0-11,8.8-19.3,19.5-19.3
		c9.6,0,15.6,6.7,17.1,10.2h-4.2c-4.1-6.1-10.7-6.8-12.9-6.8c-8.7,0-15.7,7.7-15.7,16c0,8.7,7.7,15.8,15.7,15.8c1.9,0,8-0.3,13-7.1
		H194z"/>
	<path fill="#262626" d="M213.7,46.9c10.5,0,19.8,8.3,19.8,19.3c0,11-9.3,19.3-19.8,19.3c-10.6,0-19.7-8.6-19.7-19.1
		C194,54.6,203.8,46.9,213.7,46.9z M213.7,82.1c8.6,0,16-7,16-15.9c0-8.7-7.2-16-16-16c-8.4,0-16,6.9-16,16.1
		C197.7,74.9,205,82.1,213.7,82.1z"/>
	<path fill="#262626" d="M235,47.5h5.8l13.6,31.8l13.6-31.8h5.7v37.3h-3.7V51.6h-0.1l-14,33.2h-3.2l-13.9-33.2h-0.1v33.2H235V47.5z"
		/>
	<path fill="#262626" d="M269.9,47.5h5.7l13.6,31.8l13.6-31.8h5.7v37.3h-3.7V51.6h-0.1l-14,33.2h-3.2l-13.9-33.2h-0.1v33.2h-3.7
		V47.5z"/>
	<path fill="#262626" d="M330,46.9c10.5,0,19.8,8.3,19.8,19.3c0,11-9.3,19.3-19.8,19.3c-10.6,0-19.7-8.6-19.7-19.1
		C310.3,54.6,320.1,46.9,330,46.9z M330,82.1c8.6,0,16-7,16-15.9c0-8.7-7.2-16-16-16c-8.4,0-16,6.9-16,16.1
		C314,74.9,321.3,82.1,330,82.1z"/>
	<path fill="#262626" d="M351.8,47.5h5l20.8,30.9h0.1V47.5h3.7v37.3h-3.7L355.6,52h-0.1v32.8h-3.7V47.5z"/>
	<g>
		<path fill="#2EC9FF" d="M186.1,100.5c-2.7-3.1-6-5-10.2-5c-7,0-12.4,6.4-12.4,13.1c0,6.8,5.6,13.2,12.6,13.2
			c4.1,0,6.9-1.8,9.6-4.8h8.2c-2.9,6.9-10.2,11.4-17.6,11.4c-10.9,0-19.8-9.1-19.8-19.9c0-10.7,8.9-19.6,19.7-19.6
			c7.8,0,14.8,4.5,17.9,11.6H186.1z"/>
		<path fill="#2EC9FF" d="M198.5,127.6v-38h7v31.4h11.6v6.6H198.5z"/>
		<path fill="#2EC9FF" d="M239,128.4c-10.9,0-19.9-8.7-19.9-19.7c0-11,8.9-19.9,19.9-19.9c11,0,19.9,8.8,19.9,19.9
			C258.9,119.7,249.9,128.4,239,128.4z M239,95.4c-7.3,0-12.8,6.1-12.8,13.2c0,7.1,5.6,13.1,12.8,13.1c7.2,0,12.8-6.1,12.8-13.1
			C251.8,101.6,246.3,95.4,239,95.4z"/>
		<path fill="#2EC9FF" d="M288.4,122.8c-2.6,3.6-7,5.6-11.4,5.6c-4.3,0-8.7-2-11.3-5.4c-1.9-2.5-2.4-6.1-2.4-9.2V89.6h7v24.1
			c0,4.4,1.4,8.1,6.6,8.1s6.6-3.6,6.6-8.1V89.6h7v24.1C290.6,116.9,290.2,120.1,288.4,122.8z"/>
		<path fill="#2EC9FF" d="M318.1,125.2c-3.6,2-8.5,2.5-12.6,2.5h-8.8v-38h8.6c5.3,0,11.5,0.8,15.6,4.4c4.1,3.6,6.3,9.3,6.3,14.7
			C327.2,115.2,323.9,122,318.1,125.2z M316.1,99.4c-3.5-3.1-7.9-3.2-12.4-3.2v24.9h1.5c3.4,0,6.2-0.2,9.2-1.8
			c3.7-2.1,5.7-6.3,5.7-10.5C320.2,105.3,318.7,101.7,316.1,99.4z"/>
	</g>
	<g>
		<path fill="#2EC9FF" d="M115,5.4c-1.8-3-6.1-5.4-9.6-5.4H42.8c-3.5,0-7.8,2.4-9.6,5.4L2,59.2c-1.8,3-1.8,8,0,11l31.3,54.1
			c1.8,3,6.1,5.7,9.6,5.7h62.6c3.5,0,7.8-2.7,9.6-5.7l31.3-54c1.8-3,1.8-8,0-11L115,5.4z"/>
	</g>
	<g>
		<g>
			<defs>
				<path id="SVGID_143_" d="M51.5,117.5c-3.9,0-7.5-2.1-9.5-5.5L18.8,71.8c-2-3.4-2-7.5,0-10.9l23.2-40.2c1.9-3.4,5.6-5.5,9.5-5.5
					H98c3.9,0,7.5,2.1,9.5,5.5l23.2,40.2c1.9,3.4,1.9,7.5,0,10.9l-23.2,40.2c-2,3.4-5.6,5.5-9.5,5.5H51.5z"/>
			</defs>
			<clipPath id="SVGID_2_">
				<use xlink:href="#SVGID_143_"  overflow="visible"/>
			</clipPath>
			<g clip-path="url(#SVGID_2_)">
				<polygon fill="#EA178E" points="104.3,15.2 74.8,66.4 104.3,117.6 133.9,66.4 				"/>
				<polygon fill="#F0D175" points="45.2,15.2 15.7,66.4 74.8,66.4 104.3,15.2 				"/>
				<polygon fill="#28ADE3" points="15.7,66.4 74.8,66.4 104.3,117.6 45.2,117.6 				"/>
			</g>
		</g>
		<g>
			<defs>
				<path id="SVGID_145_" d="M99.2,35.7c2.3,0,4.5,1.3,5.7,3.3l14,24.2c1.2,2,1.2,4.5,0,6.6l-14,24.2c-1.2,2-3.3,3.3-5.7,3.3H71.3
					c-2.3,0-4.5-1.2-5.7-3.3l-14-24.2c-1.2-2-1.2-4.5,0-6.6l14-24.2c1.2-2,3.3-3.3,5.7-3.3H99.2z"/>
			</defs>
			<clipPath id="SVGID_4_">
				<use xlink:href="#SVGID_145_"  overflow="visible"/>
			</clipPath>
			<g clip-path="url(#SVGID_4_)">
				<polygon fill="#EA178E" points="67.5,97.1 85.2,66.4 67.5,35.7 49.7,66.4 				"/>
				<polygon fill="#F0D175" points="103,97.1 120.7,66.4 85.2,66.4 67.5,97.1 				"/>
				<polygon fill="#28ADE3" points="120.7,66.4 85.2,66.4 67.5,35.7 103,35.7 				"/>
			</g>
		</g>
		<g opacity="0.33">
			<defs>
				<path id="SVGID_147_" opacity="0.33" d="M51.5,117.5c-3.9,0-7.5-2.1-9.5-5.5L18.8,71.8c-2-3.4-2-7.5,0-10.9l23.2-40.2
					c1.9-3.4,5.6-5.5,9.5-5.5H98c3.9,0,7.5,2.1,9.5,5.5l23.2,40.2c1.9,3.4,1.9,7.5,0,10.9l-23.2,40.2c-2,3.4-5.6,5.5-9.5,5.5H51.5z"
					/>
			</defs>
			<clipPath id="SVGID_6_">
				<use xlink:href="#SVGID_147_"  overflow="visible"/>
			</clipPath>
			<g clip-path="url(#SVGID_6_)">
				<polygon fill="#EA178E" points="104.3,15.2 74.8,66.4 104.3,117.6 133.9,66.4 				"/>
				<polygon fill="#F0D175" points="45.2,15.2 15.7,66.4 74.8,66.4 104.3,15.2 				"/>
				<polygon fill="#28ADE3" points="15.7,66.4 74.8,66.4 104.3,117.6 45.2,117.6 				"/>
			</g>
		</g>
	</g>
	<g opacity="0.8">
		<path fill="#FFFFFF" d="M-76.2,133.9c38-0.2,95.7,0.1,133.7,0.1c7.6,0,15.2,0,22.8,0c0,0,12.6-23.1-14.7-32.3c0,0-14-24-45.7-11
			c0,0-39.2-30.8-67.3,7.7C-47.4,98.5-80.1,99.1-76.2,133.9z"/>
	</g>
	<g opacity="0.6">
		<path fill="#FFFFFF" d="M248.2,156.8c38-0.2,95.7,0.2,133.7,0.2c7.6,0,15.2,0,22.8,0c0,0,12.6-23.1-14.7-32.3c0,0-14-24-45.7-11
			c0,0-39.2-30.8-67.3,7.7C277,121.4,244.3,122.1,248.2,156.8z"/>
	</g>
	<g opacity="0.6">
		<path fill="#FFFFFF" d="M110.8,163.5c38-0.2,95.7,0.5,133.7,0.5c7.6,0,15.2,0,22.8,0c0,0,12.6-23.4-14.7-32.6
			c0,0-14-24.1-45.7-11.2c0,0-39.2-30.7-67.3,7.8C139.6,128,106.9,128.8,110.8,163.5z"/>
	</g>
	<g opacity="0.8">
		<path fill="#FFFFFF" d="M170.8-2.9C146.1-2.8,108.6-3,83.9-3C79-3,74.1-3,69.1-3c0,0-8.2,15,9.5,21c0,0,9.1,15.6,29.7,7.2
			c0,0,25.5,20,43.7-5C152.1,20.1,173.3,19.7,170.8-2.9z"/>
	</g>
</g>
<g id="Layer_5">
</g>
</svg>
