<?xml version="1.0" encoding="utf-8"?>
<!-- Generator: Adobe Illustrator 18.0.0, SVG Export Plug-In . SVG Version: 6.00 Build 0)  -->
<!DOCTYPE svg PUBLIC "-//W3C//DTD SVG 1.1//EN" "http://www.w3.org/Graphics/SVG/1.1/DTD/svg11.dtd">
<svg version="1.1" xmlns="http://www.w3.org/2000/svg" xmlns:xlink="http://www.w3.org/1999/xlink" x="0px" y="0px"
	 viewBox="0 0 302 100.8" enable-background="new 0 0 302 100.8" xml:space="preserve">
<g id="Layer_1">
	<path fill="#262626" d="M152.6,57.8c-3.1,5.7-8.7,8.2-13.4,8.2c-8.2,0-15.2-6.4-15.2-15.1c0-8.6,6.9-15.1,15.2-15.1
		c7.5,0,12.2,5.2,13.4,8h-3.3c-3.2-4.8-8.4-5.3-10.1-5.3c-6.8,0-12.3,6-12.3,12.5c0,6.8,6,12.4,12.3,12.4c1.5,0,6.2-0.2,10.2-5.5
		H152.6z"/>
	<path fill="#262626" d="M168,63.3c6.7,0,12.5-5.5,12.5-12.4c0-6.8-5.6-12.5-12.5-12.5c-6.6,0-12.5,5.4-12.5,12.6
		C155.5,57.7,161.2,63.3,168,63.3 M168,35.8c8.2,0,15.4,6.5,15.4,15.1c0,8.6-7.3,15.1-15.4,15.1c-8.3,0-15.4-6.7-15.4-14.9
		C152.6,41.8,160.2,35.8,168,35.8"/>
	<polygon fill="#262626" points="184.6,36.3 189.1,36.3 199.7,61.1 210.3,36.3 214.8,36.3 214.8,65.4 211.9,65.4 211.9,39.5 
		211.8,39.5 200.9,65.4 198.4,65.4 187.6,39.5 187.5,39.5 187.5,65.4 184.6,65.4 	"/>
	<polygon fill="#262626" points="211.9,36.3 216.4,36.3 227,61.1 237.6,36.3 242.1,36.3 242.1,65.4 239.2,65.4 239.2,39.5 
		239.1,39.5 228.2,65.4 225.7,65.4 214.9,39.5 214.8,39.5 214.8,65.4 211.9,65.4 	"/>
	<path fill="#262626" d="M258.9,63.3c6.7,0,12.5-5.5,12.5-12.4c0-6.8-5.6-12.5-12.5-12.5c-6.6,0-12.5,5.4-12.5,12.6
		C246.4,57.7,252.1,63.3,258.9,63.3 M258.9,35.8c8.2,0,15.4,6.5,15.4,15.1c0,8.6-7.3,15.1-15.4,15.1c-8.3,0-15.4-6.7-15.4-14.9
		C243.5,41.8,251.1,35.8,258.9,35.8"/>
	<polygon fill="#262626" points="296.2,36.3 296.2,60.5 296.1,60.5 279.8,36.3 275.9,36.3 275.9,65.4 278.8,65.4 278.8,39.8 
		278.9,39.8 296.2,65.4 299.1,65.4 299.1,36.3 	"/>
	<g>
		<defs>
			<path id="SVGID_13_" d="M33.4,0.2c-3.8,0-7.4,2-9.3,5.3L1.4,45C0.5,46.6,0,48.4,0,50.2v0.1c0,1.8,0.5,3.7,1.4,5.3l22.8,39.4
				c1.8,3.2,5.2,5.2,8.9,5.3h46.3c3.7-0.1,7-2.1,8.9-5.3L111,55.6c1.9-3.3,1.9-7.4,0-10.7L88.2,5.5c-1.9-3.3-5.4-5.3-9.3-5.3H33.4z"
				/>
		</defs>
		<clipPath id="SVGID_2_">
			<use xlink:href="#SVGID_13_"  overflow="visible"/>
		</clipPath>
		<polygon clip-path="url(#SVGID_2_)" fill="#F0D07A" points="85.1,0.2 56.2,50.3 85.1,100.4 114.1,50.3 		"/>
		<polygon clip-path="url(#SVGID_2_)" fill="#9DC863" points="27.3,0.2 -1.7,50.3 56.2,50.3 85.1,0.2 		"/>
		<polygon clip-path="url(#SVGID_2_)" fill="#30ACDF" points="-1.7,50.3 56.2,50.3 85.1,100.4 27.3,100.4 		"/>
	</g>
	<g>
		<defs>
			<path id="SVGID_15_" d="M52.8,20.2c-2.3,0-4.4,1.2-5.6,3.2L33.5,47.1c-1.1,2-1.1,4.4,0,6.4l13.7,23.7c1.1,2,3.3,3.2,5.6,3.2h27.3
				c2.3,0,4.4-1.2,5.6-3.2l13.7-23.7c1.1-2,1.1-4.4,0-6.4L85.7,23.4c-1.1-2-3.3-3.2-5.6-3.2H52.8z"/>
		</defs>
		<clipPath id="SVGID_4_">
			<use xlink:href="#SVGID_15_"  overflow="visible"/>
		</clipPath>
		<polygon clip-path="url(#SVGID_4_)" fill="#F0D07A" points="61.3,59.2 66.4,50.3 61.3,41.4 56.2,50.3 31.7,50.3 31.7,50.3 
			56.2,50.3 		"/>
		<polygon clip-path="url(#SVGID_4_)" fill="#ADC398" points="61.3,59.2 56.2,50.3 31.7,50.3 49.1,80.4 		"/>
		<polygon clip-path="url(#SVGID_4_)" fill="#D5CD72" points="61.3,41.4 49.1,20.2 31.7,50.3 56.2,50.3 		"/>
		<polygon clip-path="url(#SVGID_4_)" fill="#B9CB6B" points="83.8,80.4 101.2,50.3 66.4,50.3 61.3,59.2 73.6,80.4 		"/>
		<polygon clip-path="url(#SVGID_4_)" fill="#7ABF8C" points="73.6,80.4 61.3,59.2 49.1,80.4 		"/>
		<polygon clip-path="url(#SVGID_4_)" fill="#54B7B5" points="49.1,20.2 61.3,41.4 73.6,20.2 		"/>
		<polygon clip-path="url(#SVGID_4_)" fill="#6EB7BF" points="101.2,50.3 83.8,20.2 73.6,20.2 61.3,41.4 66.4,50.3 		"/>
	</g>
	<path fill="#30ACDF" d="M147.3,78.2c-2.1-2.5-4.7-4-8.1-4c-5.5,0-9.8,5.1-9.8,10.4c0,5.4,4.4,10.5,10,10.5c3.3,0,5.5-1.5,7.6-3.8
		h6.5c-2.3,5.5-8.1,9-13.9,9c-8.6,0-15.7-7.2-15.7-15.8c0-8.5,7.1-15.6,15.6-15.6c6.2,0,11.7,3.5,14.2,9.2H147.3z"/>
	<path fill="#30ACDF" d="M164.4,74.9h-3.6v9.2h3.6c3,0,5.4-1.5,5.4-4.6C169.8,76.3,167.3,74.9,164.4,74.9 M168.9,99.8l-8-11.5h-0.1
		v11.5h-5.6V69.6h9.2c2.6,0,5.2,0.3,7.3,2c2.2,1.8,3.5,4.4,3.5,7.3c0,2.6-1.1,5.4-2.9,7.2c-1.5,1.5-3,2-5,2.5l8.2,11.1H168.9z"/>
	<polygon fill="#30ACDF" points="177.9,69.6 177.9,99.8 194.1,99.8 194.1,94.6 183.5,94.6 183.5,87.4 193.7,87.4 193.7,82.2 
		183.5,82.2 183.5,74.9 194.1,74.9 194.1,69.6 	"/>
	<path fill="#30ACDF" d="M209.9,77.5L209.9,77.5l3.5,9.2h-6.9L209.9,77.5z M207.8,69.6l-12.5,30.1h6.2l3.2-7.8h10.8l3.2,7.8h6.1
		l-12.6-30.1H207.8z"/>
	<polygon fill="#30ACDF" points="222.4,69.6 222.4,74.9 228,74.9 228,99.8 233.6,99.8 233.6,74.9 239.2,74.9 239.2,69.6 	"/>
	<rect x="241.4" y="69.6" fill="#30ACDF" width="5.6" height="30.1"/>
	<polygon fill="#30ACDF" points="270.7,69.6 262.6,92.6 262.5,92.6 254.4,69.6 248.5,69.6 260.3,99.8 264.8,99.8 276.5,69.6 	"/>
	<polygon fill="#30ACDF" points="278.4,69.6 278.4,99.8 294.6,99.8 294.6,94.6 284,94.6 284,87.4 294.2,87.4 294.2,82.2 284,82.2 
		284,74.9 294.6,74.9 294.6,69.6 	"/>
</g>
<g id="Layer_2">
</g>
<g id="Layer_3">
	<g id="Layer_4">
	</g>
</g>
<g id="Layer_5">
</g>
</svg>
